<svg xmlns="http://www.w3.org/2000/svg" width="200" height="179.656" viewBox="0 0 200 179.656"><g transform="translate(-638.859 888.729)"><path d="M668.738-822.426a2.242,2.242,0,0,1-2.254-2.373,2.237,2.237,0,0,1,2.254-2.367,1.8,1.8,0,0,1,1.409.718l.488-.365a2.387,2.387,0,0,0-1.9-.867,2.789,2.789,0,0,0-2.859,2.881,2.79,2.79,0,0,0,2.859,2.883,2.427,2.427,0,0,0,2.03-1.006l-.46-.327A1.753,1.753,0,0,1,668.738-822.426Z" transform="translate(27.45 62.019)" fill="#947c4e"></path><path d="M671.54-827.678a2.788,2.788,0,0,0-2.859,2.88,2.79,2.79,0,0,0,2.859,2.883A2.791,2.791,0,0,0,674.4-824.8,2.789,2.789,0,0,0,671.54-827.678Zm0,5.253a2.243,2.243,0,0,1-2.256-2.373,2.238,2.238,0,0,1,2.256-2.368,2.239,2.239,0,0,1,2.254,2.368A2.244,2.244,0,0,1,671.54-822.425Z" transform="translate(30.297 62.02)" fill="#947c4e"></path><path d="M672.724-827.609h-.557v5.486h3.114v-.513h-2.557Z" transform="translate(33.837 62.09)" fill="#947c4e"></path><path d="M676.859-827.678A2.788,2.788,0,0,0,674-824.8a2.79,2.79,0,0,0,2.859,2.883,2.792,2.792,0,0,0,2.859-2.883A2.79,2.79,0,0,0,676.859-827.678Zm0,5.253a2.241,2.241,0,0,1-2.254-2.373,2.236,2.236,0,0,1,2.254-2.368,2.236,2.236,0,0,1,2.252,2.368A2.241,2.241,0,0,1,676.859-822.425Z" transform="translate(35.7 62.02)" fill="#947c4e"></path><path d="M682.894-822.125v-5.484h-.854l-1.85,4.461-1.85-4.461h-.853v5.484h.559v-4.741h.014l1.984,4.741h.293l1.984-4.741h.014v4.741Z" transform="translate(39.241 62.091)" fill="#947c4e"></path><path d="M684.676-823.644a1.272,1.272,0,0,0-1.24-1.371v-.016a1.178,1.178,0,0,0,.966-1.2c0-1.038-.859-1.379-1.766-1.379H681v5.485h1.673C684.44-822.124,684.676-823.287,684.676-823.644Zm-3.117-3.453h1.07c1.054,0,1.169.7,1.169.927,0,.705-.581.961-1.115.961h-1.125Zm1.07,4.459h-1.07v-2.106H682.7c.891,0,1.371.351,1.371,1.07S683.436-822.638,682.63-822.638Z" transform="translate(42.813 62.09)" fill="#947c4e"></path><path d="M686.193-827.678a2.789,2.789,0,0,0-2.858,2.88,2.791,2.791,0,0,0,2.858,2.883,2.791,2.791,0,0,0,2.859-2.883A2.789,2.789,0,0,0,686.193-827.678Zm0,5.253a2.241,2.241,0,0,1-2.252-2.373,2.236,2.236,0,0,1,2.252-2.368,2.239,2.239,0,0,1,2.256,2.368A2.244,2.244,0,0,1,686.193-822.425Z" transform="translate(45.182 62.02)" fill="#947c4e"></path><path d="M689.026-826.692a.89.89,0,0,0-.891.891.893.893,0,0,0,.891.9.893.893,0,0,0,.893-.9A.89.89,0,0,0,689.026-826.692Z" transform="translate(50.058 63.022)" fill="#947c4e"></path><path d="M691.714-826.177a1.042,1.042,0,0,1,1.171-.99,1.2,1.2,0,0,1,1.058.532l.486-.379a1.892,1.892,0,0,0-1.544-.665,1.6,1.6,0,0,0-1.776,1.558c0,2,2.81,1.145,2.81,2.7a1.1,1.1,0,0,1-1.18,1,1.387,1.387,0,0,1-1.246-.667l-.5.363a2.067,2.067,0,0,0,1.732.814,1.7,1.7,0,0,0,1.8-1.587C694.522-825.478,691.714-824.7,691.714-826.177Z" transform="translate(52.958 62.019)" fill="#947c4e"></path><path d="M695.492-824.726a1.4,1.4,0,0,0,1.405-1.419c0-.984-.689-1.464-1.808-1.464H693.4v5.485h.56v-2.548h.929l1.5,2.548h.681Zm-1.532-.458V-827.1h.992c1,0,1.341.423,1.341.951s-.343.962-1.341.962Z" transform="translate(55.407 62.09)" fill="#947c4e"></path><rect width="0.557" height="5.486" transform="translate(753.597 -765.52)" fill="#947c4e"></rect><path d="M698.609-827.609h-.557v5.486h3.114v-.513h-2.557Z" transform="translate(60.132 62.09)" fill="#947c4e"></path><path d="M702.088-827.609l-2.389,5.485h.651l.6-1.443h2.806l.6,1.443h.649l-2.387-5.485Zm-.921,3.534,1.193-2.885,1.181,2.885Z" transform="translate(61.805 62.09)" fill="#947c4e"></path><path d="M706.785-822.961h-.018L703.5-827.61h-.7v5.486h.559v-4.7h.016l3.27,4.7h.695v-5.486h-.555Z" transform="translate(64.956 62.089)" fill="#947c4e"></path><path d="M709.9-827.609h-.8l-2.579,2.379h-.077v-2.379h-.557v5.486h.557v-2.829h.093l2.7,2.829h.819l-2.92-3Z" transform="translate(68.092 62.09)" fill="#947c4e"></path><path d="M710.423-827.609l-2.387,5.485h.651l.6-1.443h2.8l.6,1.443h.653l-2.387-5.485Zm-.921,3.534,1.189-2.885,1.185,2.885Z" transform="translate(70.275 62.09)" fill="#947c4e"></path><path d="M656.684-871.743a1.541,1.541,0,0,0,.425,1.167A1.109,1.109,0,0,0,656.684-871.743Z" transform="translate(18.108 17.256)" fill="#947c4e"></path><path d="M729.371-864.988c1.226.244,2.27-1.844,2.248-2.879C729.846-868.681,727.776-865.314,729.371-864.988Z" transform="translate(91.368 21.066)" fill="#947c4e"></path><path d="M648.819-865a1.785,1.785,0,0,1,.331-.425,3.23,3.23,0,0,0-2.56-2.348C646.3-866.6,647.464-865.212,648.819-865Z" transform="translate(7.808 21.29)" fill="#947c4e"></path><path d="M644.688-853.45c-1.744-1.054-2.016-3.608-3.63-4.785a11.246,11.246,0,0,0,4.794,6.62C645.96-852.314,644.728-852.556,644.688-853.45Z" transform="translate(2.233 30.978)" fill="#947c4e"></path><path d="M729.394-813.273c-.873,1.679,1.349,3.352,2.887,3.3C732.083-811.422,731.38-813.269,729.394-813.273Z" transform="translate(91.772 76.654)" fill="#947c4e"></path><path d="M649.349-812.215c-1.472-.859-2.784,1.173-2.673,2.548C647.98-810.088,649.184-810.648,649.349-812.215Z" transform="translate(7.935 77.52)" fill="#947c4e"></path><path d="M679.878-809.35c.393.974,1.554,2.07,1.814,3.528C683.228-806.993,680.9-809.54,679.878-809.35Z" transform="translate(41.67 80.629)" fill="#947c4e"></path><path d="M698.928-809.2c-1.012.5-2.236,1.318-2.038,2.675,1.284-.24,1.417-1.657,2.143-2.453C699.2-809,699.047-809.154,698.928-809.2Z" transform="translate(58.93 80.789)" fill="#947c4e"></path><path d="M698.9-807.583c.786.242,1.516-.937,1.387-1.619C699.683-808.787,698.923-808.555,698.9-807.583Z" transform="translate(60.991 80.789)" fill="#947c4e"></path><path d="M689.2-804.491a7.208,7.208,0,0,0-1.824-2.879c-1.4-.627-2.276-1.778-4.481-1.6.359,1.556,2.366,1.355,3.745,2.139,1.433.8,1.806,1.984,2.334,3.836C689.739-803.124,689.336-804.025,689.2-804.491Z" transform="translate(44.739 81.003)" fill="#947c4e"></path><path d="M691.963-803.112c1.137-1.171,1.9-2.7,3.2-3.739.752-.673,1.822-1.034,2.449-1.81-.153-.038-.177-.173-.327-.22A7.565,7.565,0,0,0,691.963-803.112Z" transform="translate(53.947 81.115)" fill="#947c4e"></path><path d="M686.48-804.694h-.314c-.1.266-.107.726.314.746C686.377-804.335,686.657-804.519,686.48-804.694Z" transform="translate(47.998 85.369)" fill="#947c4e"></path><path d="M692.062-804.477a.393.393,0,0,0,.214.639C692.435-804,692.465-804.566,692.062-804.477Z" transform="translate(53.943 85.579)" fill="#947c4e"></path><path d="M658.808-871.1c1.139.937,2,2.377,3.528,2.895,0,.462.55.361.639.74.3-.343-.947-.966-1.06-1.6a9.25,9.25,0,0,1-2.032-2.143c-1.135-.5-1.885-1.371-3.094-1.808C657.052-871.981,658.09-871.695,658.808-871.1Z" transform="translate(18.214 15.962)" fill="#947c4e"></path><path d="M836.93-751.1c-.6-.32-.57-1.272-1.06-1.712a5.661,5.661,0,0,0-.629-3.209c0-.24,0-.492,0-.742-.945-1.671-.681-3.886-1.371-5.771.663-1.593-1.01-2.5-.752-4.376-.332-.292-.891.413-1.278.1-.2-.324.028-1.084-.2-1.391-.29-.272-.56.058-.957,0-.3-.337-.3-.98-.431-1.5-.327-.375-.937.119-1.167-.431a10.579,10.579,0,0,0,.006-2.129c-.551.17-1.222.577-1.393-.208.246-.552,1-.437,1.393-.335,1.171-.474,1.481-1.419,2.036-2.34a3.351,3.351,0,0,0-2.02-3.727c-1.4-.474-2.451.371-3.421,1.04-.831-1.052-.008-3.453-.629-4.895a8.679,8.679,0,0,0,.228-3.215c-.061-3.711-.2-7.809-.188-12.172a6.22,6.22,0,0,1,.651-3.411c1.107.452,2.036,1.1,3.2.76a3.07,3.07,0,0,0,2.042-3.848,2.383,2.383,0,0,0-1.919-1.812c-.419-.083-1.262.49-1.379-.327.216-.72.663-.577,1.381-.421a1.971,1.971,0,0,1,1.4-1.709,2.364,2.364,0,0,1,.639-1.389c.236.071.3.268.647.224-.149-2.078,1.659-2.187,1.4-4.384a2.849,2.849,0,0,1,.857-.415c.419-2.8.867-5.642,1.185-8.438,1-1.133.518-3.772,2.05-4.366a2.673,2.673,0,0,0,1.169.96c.831-1.193.569-3.81-1.383-3.528-.9-1.3-.548-3.159-1.363-4.378-.219-.294-.653-.343-.975-.643-.246-.246-.309-.569-.526-.756-.286-.22-.726-.306-.957-.635.073-.458.627-.439.54-1.062-1.1-.784-.583-2.2-.095-3.3-.716-.476-1.891-.48-2.57-.97.341-.994,1.016-1.625,1.292-2.673a4.976,4.976,0,0,0-.952-3.53c-.6-.018-.7-.516-1.175-.75-1.49-.726-3.653-.184-3.84-2.04,1.306-4.822-5.888-6.794-7.676-2.691-.095.583-.121,1.248-.748,1.28-1-1.038-.877-3.161-1.6-4.483-1.213.538-2.419,1.078-3.3-.107a4.362,4.362,0,0,0-5.114-2.909c-.615-1.2-2.167-2.566-3.838-1.708.036.556.52.681.52,1.264-.724.992-2.205.532-3.207.859-1.046.349-1.79,1.367-2.991,1.7-.941.266-1.691-.078-2.669.522,3.119.385,5.963-2.334,9.519-2.213.377-.665-.022-.945-.111-1.607.953-.637,1.78.448,1.484,1.707,2.084.194,5.034.679,5.447,2.584.252,1.189-.288,2.651-1.28,2.55-1.351-.109-.514-1.621.21-1.808-.052-1.325-1.258-1.738-2.24-1.712-1.409.034-2.014,1.3-2.679,1.919a.714.714,0,0,0-.518-.123c-.427.738-.345,1.964-1.181,2.246-.335-.371.2-1.629-.435-1.705-.863,1.3-.466,3.875-2.35,4.157-.383-.889.246-1.84.113-2.459-1.133.839-.883,3.04-2.574,3.312-.343-.7.613-1.113.224-1.816-.806-.127-.831.9-1.173,1.383-.615.81-1.6,1.734-2.689,1.282.625-1.645,2.117-2.532,3.328-3.518.617-.516,1.187-1.062,1.818-1.588,1.228-1.089,3.008-1.639,3.75-3.1-2.824.421-4.3,2.425-6.1,4.036-.841.77-1.833,1.415-2.57,2.133-.633.621-1.03,1.683-2.143,1.6-.312-.3.381-.925,0-1.288-.949.689-1.431,1.837-2.987,1.919-.24-.228.081-.363,0-.75-1.335.312-2.512,1.25-3.945.839-.254-.518.613-.857.107-.941-3,1.431-7.828,1.064-8.543-1.843-.252-1.943.528-3.449,2.052-3.635,2.516-.306,3.3,2.933.724,3.423-.812-.478-.179-1.391.006-2.04-1.137-.715-2.054.794-1.609,2.036.5,1.449,3.79,2.534,5.878,1.4.449-.25.72-.782,1.169-.953.552-.208,1.07.052,1.387-.311.3-.333-.274-.442-.1-.964.458-.327,1.276-.292,1.822-.542.254-.29-.335-.373-.23-.843.341-.454,1.367-.216,1.931-.421.079-1.087,1.455-.837,2.25-1.177.006-.448-.193-.593,0-.951.252-.337.925-.218,1.278-.423a18.757,18.757,0,0,0-2.663-.442c-.061.551.363.81.095,1.278a5.783,5.783,0,0,1-2.455.32c-.268.187-.137.784-.528.851-.51.087-1.145.084-1.615.209-.064.518.19.708,0,1.077-.57.145-1.192.28-1.818.407.028.484.486.534.427,1.074a3.114,3.114,0,0,1-2.022.423c-.27.159-.121.726-.43.851-.472,0-.958.036-1.169-.217,1.03-1.333,1.427-3.486.014-4.488-1.677-1-4.213.2-5.139,1.6-.817-.621-1.34-1.576-2.556-1.724a4.02,4.02,0,0,0-3.949,2.447c-1.177-3.149,1.572-5.362,4.274-4.042.24-2.165-1.472-3.264-2.653-4.389.363-.988,1.131-1.564,1.5-2.552-.484-1-1.834-.46-2.665-1.083-.143-1.232.812-1.375.641-2.661-.48-.508-1.939-.073-2.453-.544-.075-.7.379-.889.438-1.488-.94-.764-1.986-.659-3.542-.556a13.437,13.437,0,0,1-.083-2.344c-1.163-.426-1.8.734-2.671.532-.633-.151-1.006-1.133-1.708-1.51-.837-.421-1.49-.109-2.131-.851,1-2.5-.7-4.685-3.2-3.957-.415.125-.754.693-1.28.744-1.649.169-2.123-1.5-2.673-2.675-.728-.2-1.091.417-1.587.1-.189-.732.587-1.29.315-2.452-.567-1.957-2.516-1.171-3.941-1.711-.32-.131-.556-.51-.861-.653a16.768,16.768,0,0,0-4.366-1.5c-.508-.5-.825-.988-1.389-1.183-1.955-.665-2.488.687-3.526,1.169-1.219.574-3.251.871-4.59,1.478-.611.278-.873.681-1.282.75-.6.087-1.155-.177-1.611-.107-1.9.268-2.351,2.244-1.615,3.939a2.026,2.026,0,0,1-1.808.2,4.693,4.693,0,0,1-3.11,3.094c-1.635-.744-3.165-.427-3.739.843-.343.768.228,1.891-.1,2.556-.216.464-.921.478-1.4.744-.641.361-1.314,1.165-2.248,1.288-.818-.558-2.2-1.4-3.3-.978.169.7,1.109,1.931.317,2.562-1.181-.127-3.024-.337-3.433.631.427.649,1.752,1.427,1.066,2.461-.786.036-2.486-.163-3.094.639.125.974,1.177,1.032,1.064,2.244-1.445.288-3,.478-3.53,1.693.693.3,1.689.313,1.814,1.191-1.177,1.524-3.693,2.268-3.116,5.209,1.921-.3,3.981-1.554,5.13.121,1.566,2.29-1.8,7.717-3.54,5.009a1.964,1.964,0,0,0,1.827-3.3,2.98,2.98,0,0,0-2.677-.76c-1.534.3-2.181,1.831-3.095,2.449-.843-3.2-6.108-3.119-5.973.726.012.466.4.766.208,1.282-.456.415-1.845.3-1.931-.323a4.567,4.567,0,0,0,.228-1.068,2.582,2.582,0,0,1-1.607-.323c-.083-.4.125-.5.115-.859a13.705,13.705,0,0,1-2.354-.318c-.272-.335.121-.673,0-1.175-.631-.163-1.619.234-2.139-.22.034-.349.31-.819.123-1.077-.788-.052-1.246.183-2.04.113a1.843,1.843,0,0,1-.315-.859c-2.627-.107-4.521.123-6.411-.766-.516-.252-.9-.847-1.481-1.076-.831-.292-1.766-.135-2.677-.423-.427.324-1.949.363-2.236-.119-.308-1.089.429-.943.54-1.808a2.325,2.325,0,0,0-3.961,1.587,6.4,6.4,0,0,0-4.592,2.24c-.988-.52-1.6.688-2.57.837-.925-.33-1.7-1.361-2.979-.962.071,1.149.377,3.139-.331,3.838a2,2,0,0,1-1.395-1.179c-3.76-2.139-7.568,1.3-6.2,5.328-.72.758-1.961-.167-3.1-.01a4.154,4.154,0,0,0-3.421,3.411c-.212,1.641.816,2.885,1.8,4.276-.621.905-2.455.592-3.417,1.165-.189,1.29,1.012,1.7,1.066,2.56.034.788-.951,1.252-.653,2.461-1.7.849-2.52,2.606-3.008,4.675-1.859.008-2.242,2.169-1.4,3.524.716.04.881-.474,1.71-.321.453.625.157,1.145.206,1.82.286,3.81,3.254,7.556,2.1,12.186.343-.016,1.014-.373,1.074,0a6.7,6.7,0,0,1-.1,2.03c.288.32.772-.218,1.07.095.242.44-.058,1.405.2,1.82.522.1.774-.437,1.183-.1a9.416,9.416,0,0,1-.006,1.389c.536.272,1.149-.151,1.492.317,0,.5,0,1,0,1.5.131.4.9.163.863.744-.828.5-2.094.552-2.784,1.161a4.4,4.4,0,0,0-.764,3.006c.546.7,1.024,1.544,1.925,1.812,1.393.415,2.709-.252,3.957-.847.724.8.264,2.147.3,3.417.163,4.465.119,8.092.081,12.075-.028,2.592.411,5.13-.127,7.793a2.385,2.385,0,0,1-1.6-.766c-3.681-1.093-5.783,3.608-3,5.342.637.393,1.361.185,2.343.314.191.7-.417.58-.748.754-.21.76-.071,1.851-.764,2.131-.314-.07-.978-.228-1.161-.111a4.887,4.887,0,0,1-.224,1.812c-.5.129-.869-.25-1.173,0-.008.746.425,1.419.208,2.038-.264.26-.456-.087-.851,0-.083.76-.067,1.649-.222,2.347-.147.284-.716.139-.96.317a96.143,96.143,0,0,1-2.276,12.273c-.95.165-.917-.653-1.709-.655-1.542,1.425.159,3.665,1.387,4.276.012,2.681,1.595,3.81,2.76,5.354-.119.431-.724.351-.752.853,1.21,1.05,1.405,2.157.631,3.856.949.52,2.508.474,3.2,1.272a4.412,4.412,0,0,0-.55,5.443c1.119,1.594,3.2,1.707,5.233,1.2.1.19.262.316.318.53-1.4,2.048-.33,5.13,1.476,5.88a4.9,4.9,0,0,0,5.245-1.381c1,.349,1.318,1.131.945,2.365.79.75,2.355.079,3.094-.208a5.435,5.435,0,0,0,2.137.74,7.586,7.586,0,0,0,4.8,2.889c.27,1.55,2.806,2.895,4.058,1.522-.157-.732-1.256-1.393-.425-2.141,4.812-.206,9.572-2.159,14.412-1.98.335-.339-.532-.387-.308-.964.55-.27,1.425-.22,1.919-.542.034-.425-.252-.524-.214-.953a7.248,7.248,0,0,1,2.143-.524c.2-.169.014-.706.216-.857.373-.262,1.117-.167,1.282-.647a5.6,5.6,0,0,1-.534-.966,3.709,3.709,0,0,1,2.35-.839c.363,1.135.661,2.328,1.6,2.893,2.689.877,4.78-.877,4.381-3.191-.1-.621-.538-.982-.53-1.716a30.6,30.6,0,0,1,8.973.129c-1.054,1.351-1.891,3.4-.766,5.118,1.149,1.738,4.971,1.333,4.707-1.7a3.737,3.737,0,0,1,3.84.131c1.028.853.764,2.284,1.167,3.613a16.281,16.281,0,0,0,2.568-.728c.339.72.22,1.907.635,2.568.968.268,1.433-.528,2.345-.637.292,1.823-1.153,2.675-1.389,4.169-.681,4.138,3.032,6.457,6.378,6.412a16.861,16.861,0,0,1,2.57-.317c1.623.2,2.915,2.1,4.9,1.3.794.2,1.445.923,2.447.969.562.02,1.139-.316,1.719-.316a17.752,17.752,0,0,0,2.346.121c1.081-.167,2.032-.891,3.207-.966.615-.03,1.242.19,1.806.111,1.012-.121,1.607-1.074,2.475-1.27,1.54-.341,2.937.032,4.159-.419a10.281,10.281,0,0,0,2.566-1.592,5.856,5.856,0,0,0,.859-4.268c-.361-1.536-1.814-1.6-2.016-3.635,1.07-.6,2.135.476,3.205-.1.024-.744-.288-1.5.222-1.917a9.184,9.184,0,0,0,2.665.429c-.075-2.127.593-4.368,3.546-3.824a2.857,2.857,0,0,0,4.792,2.03c1.371-1.337.679-3.649-.417-5.01.516-.613,2.123-.486,2.991-.427,2.131.157,4.9-.355,6.507.341-.849,2.113-.385,4.913,1.794,5.447,2.373.577,3.955-1.365,3.542-3.731.264-.057.226-.411.637-.308a1.442,1.442,0,0,1,.436.314c.073.407-.407.562-.117.859.736.49,1.824.405,2.353.851.31.381-.22.577-.123,1.068,1.177.23,2.078.177,3.207.341.119.311.087.77.328.96a13.584,13.584,0,0,1,2.024.224c.046.459-.131.512,0,.844.941.236,2.53-.179,2.238,1.3,1.139.129,2.3-.32,3.52-.212,1.6.121,3.01,1.208,4.159.97.75,1,2.915.587,3.737,1.5-.107.651-.689.825-.758,1.486a3.684,3.684,0,0,0,2.145.758c1.407-.149,1.832-1.657,2.457-2.439a7.8,7.8,0,0,0,4.175-2.139c.331-.046.413.244.635,0,.617-.373.79-1.193,1.6-1.377.74.337,1.518,1.074,2.564.744.186-.77-.048-2.322.651-3.087,1.234.786,2.951,1.962,4.8,1.189.7-.29,1.04-1.08,1.708-1.377.869-.972.319-2.782,1.077-3.735,3.812,1.4,7.025-3.173,4.82-6.4-.661-.978-1.96-1.262-2.552-2.143,1.242-1.193,3.723-1.121,5.026-2.228.254-1.21-.9-1.74-.736-2.772.169-1.127,2.042-1.719,2.137-3.1a1.991,1.991,0,0,1,.645-1.909,2.012,2.012,0,0,0,1.5-3.1C837.983-751.238,837.666-751.051,836.93-751.1Zm-22.005,5.7c.425.417,1.568.471,2.133,1.4,1.016,1.677-.645,3.915-1.824,2.024.061-.474.377-.7.427-1.169-.339-1.222-1.8-1.631-3.09-1.085a3.215,3.215,0,0,0,.736,3.423c.579-.07.71-.566,1.5-.411a1.26,1.26,0,0,1-.546,2.234c-1.982.28-3.316-2.812-2.86-4.612-1.544.488-2.159,2.387-2.05,4.173a2.848,2.848,0,0,1,2.673.968c-.5.635-2.133.121-2.677.74.051.7.923.567.861,1.383-.54.571-1.949.266-2.463.849.681,3.05-2.369,6.81,1.155,7.376-1.929,1.687-3.8-1.052-4.481-2.26.248-1.22-.931-2.264.641-2.782a19.353,19.353,0,0,1,3.665-10.015,32.886,32.886,0,0,0,3.423-2.24c2.018-3.876,5.858-5.945,11.337-6.38.282-.151.212-.645.528-.734,3-.943,6.85,1.076,5.651,4.278-.595-.933-.8-2.286-2.667-2.143-1.06.093-2.483,1.548-3.953,1.911a6.12,6.12,0,0,0-1.064.214c-.645.423-.732,1.746-1.075,2.139a2.3,2.3,0,0,1-.849-1.816c-.966.657-1.018,2.258-1.609,3.294-.817-.419-.817-1.657-.847-2.887-1.895.1-3.419.573-4.167,1.81C813.633-745.305,814.316-745.394,814.925-745.394ZM746.87-729.55c-.413.843-2.407,2.586-2.992.949C744.972-728.781,745.763-729.747,746.87-729.55Zm-4.072,5.316c-1.476-.625-.786-2.925-2.345-3.31a2.236,2.236,0,0,0-2.568,1.595c-.24.607.042,1.585-.748,1.816-1.208-.564.149-3.469.97-4.06C740.5-729.848,744.291-726.875,742.8-724.234Zm-1.3,7.263c.685-1.552-.074-4.57.98-5.775C743.59-722.129,742.63-717.291,741.5-716.971Zm-2.435-5.235a2.72,2.72,0,0,1-.21-2.879c1.7-1.014,2.6,1.417,1.7,2.677.943,1.4.452,4.052-.444,5.324A5.2,5.2,0,0,1,739.062-722.206Zm-.129,5.652a6.265,6.265,0,0,1-2.113-6.08c.1,0,.214,0,.312,0,.379.232.552.667.853.966C737.955-719.676,738.9-718.134,738.933-716.553Zm1.2-10.571c.19.3.2,1.155-.212,1.177-.2.022-.228-.123-.431-.095C739.266-726.548,739.342-727.33,740.134-727.124Zm-4.7-1.387c-1,.306-1.357-.835-2.346-.863v-.426A2.9,2.9,0,0,1,735.439-728.511ZM715.268-852.641c-.5,1.508-1.56,3-2.895,3.306.448-1.405,1.594-2.359,2.149-3.832.524-1.4.548-3.209,1.512-4.159a.526.526,0,0,0,.312.111A4.891,4.891,0,0,1,715.268-852.641Zm2.149-3.076.312,0c1.125,2.9-1.568,6.37-3.754,6.709.032-.851.764-1.079,1.177-1.712C716.141-852.2,716.488-854.124,717.418-855.717ZM763-853.04c.645,1.411,2.008,2.4,2.433,3.953-.9.4-1.145-.181-1.9-.854a4.812,4.812,0,0,1-1.913-4.395c.135-.088.21-.276.31-.405C762.7-854.6,762.65-853.787,763-853.04Zm-.2-5.447h.334c.865,1.48,1,3.227,1.58,4.8.593,1.653,1.865,2.786,2.443,4.284a5.743,5.743,0,0,1-2.449-1.5C763.2-852.638,761.863-856.511,762.8-858.486Zm61.609,34.127c0,.373.123,69.084.135,69.436-.3.1-3.536,1.141-3.536,1.141-3.457,1.119-14.978,5.8-18.393,19,0,0-.9,3.524-.988,3.836l-124.9-.169c-.085-.3-1.127-3.548-1.127-3.548-1.655-5.195-6.386-14.532-19.433-18.705,0,0-3.262-1.028-3.55-1.137,0-.333.181-69.731.181-70.082.3-.1,3.631-1.095,3.631-1.095,5.036-1.5,14.165-5.888,18.556-18.231,0,0,1.1-3.111,1.206-3.389l126,.016c.091.3,1.093,3.64,1.093,3.64,1.054,3.522,5.429,15.252,17.306,18.314C820.588-825.333,824.077-824.445,824.406-824.36Zm8.58-11.093c2.445.286,2.419,3.83,2.994,5.776.931-.309,2.022-.014,1.8,1.177a1.588,1.588,0,0,1-1.5.2,2.37,2.37,0,0,0-.962,1.6c-.373,1.451-.625,3.112-1.085,4.7-.439,1.568-.449,3.068-.98,4.7-.228.236-.425-.111-.847,0-.127.889.169,1.859-.222,2.669-.2.2-.5.044-.74,0-.367.649-.161,1.278-.437,1.919-.276.252-.361-.266-.756-.21-.381.909-.006,1.931-.313,2.881-.258.262-.476-.081-.865,0-.212.429-.113,1.155-.308,1.6-.456.073-.562-.165-.974-.111-1.671,1.048-.978,7.588,1.266,5.016-.278-.883-1.224-.355-1.276-1.173-.028-.51.56-.883,1.28-.742,2.264.419,1.369,4.312-1.175,4.046-2.631-.26-2.49-4.284-1.692-6.838-.99-1.3-.147-2.663.113-4.263-.922-.79.151-2.22.431-3.094-.03-.292-.536-.1-.633-.317.292-1.857,1.28-2.653,2.574-3.854.645-.582,1.2-1.33,1.818-1.911a41.085,41.085,0,0,0,3.536-3.2,2.832,2.832,0,0,0,.75-2.334c-.554.05-.728.478-.857.945a40.994,40.994,0,0,0-3.429,3.945c-1.621.47-1.784,2.409-3.429,2.887-.383-1.673,1.246-2.173,2.365-2.669-.361-.766-1.379.212-2.032-.224-.184-1.492,2.278-1.191,2.991-2.127-.621-.3-1.818.689-2.338-.113-.147-1.429,2.28-1.2,3.627-1.486-.3-1-1.887.292-2.564-.439.417-1.153,1.792-1.328,2.681-2.014.343-.405-.389-.407-.211-.966,1.437-.444,3.145-1.627,2.469-3.518a2.283,2.283,0,0,0-1.395-1.179c-.3.544-1.764,1.841-2.022.425C830.423-834.871,831.945-835.58,832.985-835.453Zm-.734-4.915c-.089.611-.724.7-.955,1.175.149.6.839.665.847,1.379-.488.649-1.663.613-1.831,1.609-1.669-.76-4.469-1.573-5.537-.018-.545.776.149,3.01,1.485,2.671.312-.075,1.464-2.294,2.356-.734a1.9,1.9,0,0,1-.647,1.911c-1.383.826-4.019-.147-4.594-1.5-1.1-2.429.3-4.59,1.83-5.872C826.639-841.021,829.407-841,832.251-840.368Zm-5.312-7.812c3.717-1.812,6.217,4.251,2.447,5.453-.331-.526,0-.929-.107-1.494-.288-1.554-1.744-2.256-3.739-1.824A2.787,2.787,0,0,1,826.94-848.179Zm-1.48-3.949a2.954,2.954,0,0,1-2.151,3.086c.672-2.409-1-4.133-3.624-3.32C819.995-855.862,825.276-855.229,825.46-852.128Zm-.548,4.59c-.625,2.214-1.843,5.429-4.493,5.328a1.616,1.616,0,0,1-1.714-1.074c-.758-3.328,2.651-4.207,5.141-5.116.3.058.208.516.313.75C824.379-847.587,824.861-847.78,824.912-847.538Zm-6.191-1.409c-.072.714.575.715.956.959-1.673,1.451-3.34,5.5-.447,6.848a4.7,4.7,0,0,0,5.138-2.026c.325.248.389.75,1.067.641a1.859,1.859,0,0,0,.314,1.4c-1.087,1.919-3.719,1.228-5.453,1.568-.74.151-1.169.778-2.03.633-.421-.238-.182-1.159-.625-1.381-.516.065-.827.546-1.407.214-.284-.421-.123-.8,0-1.282-.256-.492-1.066-.427-1.266-.964a1.377,1.377,0,0,1,.956-1.278,7.543,7.543,0,0,1,1.409-5.229C817.618-849.054,818.259-848.905,818.721-848.947Zm-8.864-1.186a1.716,1.716,0,0,1,2.352-1.179,2.269,2.269,0,0,1,.212,1.391c-.278.323-.829.379-1.177.637-.129,1.847,2.681,1.794,3.413.746.921-2.209-1.014-3.612-1.911-5.022.318-.647,1.316-.6,1.407-1.49.863.425,1.063-.545,1.7-.309,1.984,3.048,1.2,8.408-2.485,8.958C811.5-846.117,809.522-847.351,809.857-850.133Zm-4.256-1.828c.8-.661,2.6-1.272,2.979.53-.857-.024-1.895-.328-2.143.857-.244,1.244,1.256,3.137,1.173,4.9-.032.55-.314.9-.222,1.5.284.6,1.3.476,1.923.746-.083.746-.814.837-1.179,1.284.732,1,2.377.583,3.734.538-.141,1.754-2.052,1.915-3.631,1.917a4.4,4.4,0,0,0,2.556,3.744c.052-1.748.722-3.993,2.56-4.155a2.412,2.412,0,0,1,1.82.637c.095.857-.081,1.419-.651,1.595-.629-.19-.464-.778-1.054-.849-1.056-.117-1.853,1.439-1.719,2.353.242,1.728,2.667,1.576,3.52.216-.159-.657-.444-1.7.218-2.026,1.133-.107,1.244,1,1.179,1.6-.2,1.6-2.341,2.421-3.643,2.772a3.9,3.9,0,0,0,2.556,1.713c1.181-.7.484-3.3,2.464-3.2.068.992-.478,2.157-.008,3.205.554.252.79-.482,1.5-.419.07.671-.182,1.667.212,2.024,1.175.014,2.332-.312,3.727.222,1.089.433,2.425,1.85,4.062.968.643-.349.5-1.1,1.292-1.486.557.375.246,1.4.091,1.708-.663,1.389-3.03,2.268-5.024,2.231-.357-.062-.518-.331-.863-.421a14.43,14.43,0,0,1-9.154-3.558c-1.078-.99-1.721-2.4-2.78-3.318-.167-.149-.433-.071-.629-.21a15.3,15.3,0,0,1-1.5-1.725,12.71,12.71,0,0,1-4.028-9.4c-.145-.288-.478-.385-.633-.641C803.985-848.012,804.12-850.778,805.6-851.961Zm-40.523-20.407c.873.905-.02,3.211,1.062,4.068.693-.788,1.062-1.929,2.455-2.014.561,1.175-.909,1.935-.768,3.407.762.05,1.623-1.2,2.79-.742-.187,1.141-1.254,2.306-1.613,3.633a1.31,1.31,0,0,1-.331,1.8c-.681-.633-.038-2.57-.425-3.52-.609-.006-.437.77-.732,1.07-.923-.375-1.032-1.53-1.818-2.044-.335.272.107.665.1.966-.121.27-.445.334-.643.54.639,1.212,2.635,1.639,2.133,3.626-.238.24-.443-.1-.853,0,.391,1.115,1.865,2.607,1.361,4.6-.671.024-.816-.448-1.373-.53-.2.709.576.963.851,1.6.917,2.1,1.024,5.153,3.725,5.556-.512-1.5-1.873-2.232-1.921-3.836-.044-1.581.921-2.961,1.4-4.592-.393-.319-.6.254-1.169.1-.389-1.972.768-3.746.768-5.328.246-.575,1.693-.82,2.246-.429-.19,1.494-1.276,2.08-1.615,3.415,1.445-.055,3.28.06,3.09,1.921a4.49,4.49,0,0,0-4.395,4.386c.008,1.02.728,1.758.955,2.764,1.215,2.173,5.741,1.082,4.806-1.59a1.371,1.371,0,0,0-1.161-.845c-.595.1-.121,1.31-.55,1.593-2.4.256-1.131-3.427,1.621-2.764a2.406,2.406,0,0,1,1.591,2.56c-.111,3.57-4.471,4.657-7.479,3.181-2.492-1.218-2.479-3.014-3.411-5.667.042-2-1.865-2.617-2.012-4.06.331-.534,1.244-.209,1.814-.111.56-1.25-2.234-2.024-2.246-2.883,0-.818,1.107-.742,1.947-.74-.282-1.451-1.955-1.486-3.1-2.044-.135-.812.31-1.044.641-1.391-.189-1.081-1.762-.8-2.022-1.812.121-.337.566-.365.746-.633.012-.935-1.207-.649-1.27-1.514,1.078-.339,1.766.583,2.772.663C763.716-870.807,764.042-871.936,765.079-872.368Zm7.307,20.417c.593.1.79-.2,1.29-.2C773.8-851.457,772.5-851.463,772.386-851.951Zm-15.726-26.3a1.789,1.789,0,0,1,2.663,2.034,1.291,1.291,0,0,1-1.284.423c-.351-.22-.05-1.091-.637-1.073-.635,3.691,6.017,1.607,5.217,5.459-1.179.145-2.234-.508-3.516-1.177C757.293-873.541,754.822-875.827,756.66-878.25Zm-6.07-4.4c.079.619-.276.911-.752,1.167-.51-.02-.655-.409-.969-.633-.236.034-.23.325-.423.409.3,1.859,2.276,1.462,4.064,1.728.123,1.5,1.891,1.379,2.226,2.671a3.871,3.871,0,0,1-2.344-.853c-2.135-.294-4.05-.8-5.02-2.26C746.287-883.193,750.323-884.658,750.591-882.647Zm.935,6.088c-2.578-.165-4.6.829-6.511.091.651-1.206,3.022-1.558,4.376-.849C750.266-877.821,751.675-877.508,751.526-876.559ZM740.243-887.7c1.373.724.045,2.879-1.185,1.812A1.211,1.211,0,0,1,740.243-887.7Zm-4.066,1.7c3.219-.57,1.205,3.516,2.022,5.237.718.242.968.643,1.8.431,2.4-.576-.312-6.084,3.33-5.542.075.865-.419,1.163-.647,1.7-.1,1.578.381,2.657-.111,3.743-1.155,2.534-5.536,1.905-5.987-.659-.165-.969.331-1.929.224-2.991C736.722-884.953,735.772-885.176,736.177-886Zm-3.092,1.911c1.768.508,1.786,2.752,2.433,4.393,1.506,2.786,6.148,2.546,8.112.554,1.458-1.464.964-4.683,3.435-4.689,0,.9-.77,1.278-.867,2.125-.135,1.215.728,1.977.959,3.106-4.237,2.816-12.526,2.385-15.806-.682a6.1,6.1,0,0,0,1.516-4.808Zm1.893,7.487c-1.56.994-3.685-.2-5.661-.127-1.353.056-2.276.723-3.526.853-.389-1.083.792-.828,1.6-1.179.657-.266,1.165-1.435,2.252-.627C731.363-878.55,733.835-877.6,734.978-876.6Zm-8.106-3.649c1.671-.117,3.417-.573,3.748-2.342-.411-.218-.538.651-1.288.427-1.818-2.752,3.493-2.488,2.25.323-.647,1.433-3.088,2.709-4.931,3.83-.871.54-1.417,1.407-2.135,1.383C724.068-878.659,726.741-878.464,726.872-880.252Zm-2.163,7.366c.462-.01.6-1.085.976-1.5a6.478,6.478,0,0,1,4.81-1.584c1.211.115,2.425.705,3.83.645a24.249,24.249,0,0,0,3.213-.851,31.628,31.628,0,0,1,4.376.01c.623.073,1,.5,1.608.659,2.052.534,4.558-.449,6.729-.3,2.044.127,3.568,1.1,3.826,2.889.853.139.615-.817,1.288-.859.859.379.982,1.1,1.385,1.607,2.324,2.955,5.995,5.822,5.414,11.66-.268,2.621-2.6,5.272-1.413,8.743.389,1.137,1.617,1.752,1.7,2.893-1.587-.3-1.647-2.119-2.334-3.31-1.03.893.431,2.367.1,3.51-1.859.728-4.266-.093-5.884.309-.188.048-.6-.016-.53.435-.383-.016-.381-.4-.74-.438-11.045-.357-21.233.439-31.722-.083-1.08-.052-2.147.27-3.1-.222.349-.9,1.4-2,.861-3.094-.8.687-1.181,1.794-2.24,2.238.268-1.31,1.712-2.349,1.929-4.05-.387-2.8-2.08-4.3-2.222-7.165a13.089,13.089,0,0,1,1.843-6.4,20.822,20.822,0,0,1,5.237-6.173C724.27-873.444,724.064-872.747,724.709-872.886ZM722.7-875.67a1.078,1.078,0,0,0-1.074-1.187c-.363.444.385.905,0,1.391-2.477.691-.974-3.612,1.405-2.022,1.012.677.587,3.127-.335,3.838a15.589,15.589,0,0,1-2.9,1.272c-1.038.447-1.919,1.421-2.877,1.07C716.96-874.132,722.59-873.15,722.7-875.67Zm-15.75,21.314c.448,2.018-1.433,1.967-1.826.734-1.046-.081-1.236.815-1.066,1.7.552,2.951,6.5,1.238,5.761-1.911-.073-.4.419-.23.434-.516.381-3.419-2.2-4.844-5.221-3.866-.25-1.99,2.054-2.58,3.534-2.877-.006-1.365-1.216-1.556-1.592-2.566a3.181,3.181,0,0,1,2.868.008c.756-1.216-.975-2.246-.831-3.209.905-.843,2.091.454,2.657.972.887-1.448-.22-3-.514-4.264,1.393-.641,2.1,1.028,2.766,1.816.857-1.365-.165-3.189.119-4.481,1.532.078,1.84,1.363,2.552,2.246.958-.149,2.173-1.139,3-.419-.054.548-.591.623-.97.857,0,.345,0,.709,0,1.056a10.7,10.7,0,0,0-2.887,2.03c.216.338.839.038,1.288.318a2.628,2.628,0,0,1-3.217,1.812c-.169-1.482,1.056-2.429,1.3-3.84-.685-.121-.949,1.113-1.3,1.7-.587.02-.488-.647-.953-.748.258.952.593,2.465-.22,3.417-1.042.107-1.165-.7-1.925-.861-.331,1.058,1.52,2.284.422,3.423-.6.139-.96-.812-1.715-.867.062,1.453,2.054,2.425,1.707,4.276-.768-.151-.986-.879-1.929-.865.839,1.7,2.574,3.441,1.591,6.2-.123.363-.548.665-.637,1.173,3.687-1.306.351-7.608,2.909-9.6.042-.294-.587.091-.536-.216a2.291,2.291,0,0,1,.958-1.6c.887.4,1.816-.583,2.568.006-.627,1.661-2.034,2.54-2.685,4.161.7.234,1.5-.583,2.129.008-.315,1.115-1.157,2.036-1.6,3.3-.647,1.849-1.095,4.09-2.26,5.453-1.363,1.575-5,2.167-6.62,1.357a3.754,3.754,0,0,1-2.137-2.359C702.417-853.922,704.877-856.156,706.951-854.356Zm-36.509-4.907c-.111-1.012.248-2.613,1.5-2.232.321.54-.373,1.327-.006,2.022.423.831,1.653.506,2.558.435,3.554-.3,6.06,2.869,9.4,2.478.371,1.091,1.859.462,2.554.861.26.266-.081.464,0,.855.643.391,1.411.008,2.135.318,0,.262,0,.506,0,.75.577.357,1.73.127,2.234.544.109.53-.278.572-.316.965.514.369,1.546.161,2.24.1.292.336.1.538.107,1.068,1.256.827,5.346,1.478,6.078-.732.272-.8-.389-2.143-1.379-1.387-.151.536.421.927.21,1.175.054.328-.292.272-.323.526-1.611.159-1.677-1.708-1.161-2.776a11.417,11.417,0,0,0,1.169-.744c2.24-.419,3.078,1.5,2.885,3.209-.522,4.33-8.688,3.07-11.654,1.784-.381-.028-.288.429-.629.429a9.207,9.207,0,0,1-3.213-1.4c-.417-.032-.282.5-.637.544a16.322,16.322,0,0,1-2.242-.873c.206.516.843.593.953,1.183-1.087.224-2.024-.512-3.09-.655-.268.3-.256.885-.647,1.06-1.262-.264-1.373-1.667-1.909-2.657-.28.566.177,1.29-.224,1.8-1.242-.1-1.528-1.163-1.8-2.244-.409.183-.169,1.05-.649,1.177-1.586-.47-1.2-2.921-1.911-4.278-.518-.022-.337.659-.849.635-.627-.647-1.062-1.911-2.238-2.246-.629-.183-2.649-.008-2.78.955-.077.506.631,1,.631,1.5,0,.964-.976,1.332-1.921,1.058C663.882-856.886,666.741-860.089,670.442-859.263Zm-9.934,2.852c.776.036.969.675,1.49.962.732-.262.849-1.145,1.925-1.06.373.939-.536,2.635.631,2.887-.345,1.488-2.52,3.626-1.076,5.336a2.022,2.022,0,0,0,3.423-1.494c-.048-.79-.9-1.151-.635-2.129.3-.417,1.141-.371,1.6-.107a3.762,3.762,0,0,1-3.225,5.658c-.768-.024-1.306-.468-2.022-.328-.214-.387-.427-.772-.962-.857a16.776,16.776,0,0,0-1.595-2.256A34.857,34.857,0,0,1,660.508-856.41Zm-7.59,2.433c1.244-1.028,4.227-1.21,4.59.764-2.266-.24-3.9.891-3.433,3.727C652.116-849.687,651.9-852.566,652.918-853.977Zm5.2,11.232c-3.205.641-4.941-1.947-5.54-4.61.185-.57.917-.581,1.29-.954C656.468-847.812,659.3-845.631,658.119-842.745ZM653-844.15c.891,1.193,4.721,3.558,5.987,1.516,1.073-1.778-.984-3.734-1.7-5.026.256-.445,1.024-.385,1.063-1.058.5.429.8.21,1.383,0a29.669,29.669,0,0,1,1.165,4.375c1.2.415,1.808,2.123.1,2.445.125.625.359,1.25-.008,1.824-.833.444-1.339-.536-2.123-.115-.288.319-.3.911-.538,1.282-1.089.419-1.339-.661-1.919-1.076a12.937,12.937,0,0,1-4.594-.969c-.067-.488-.022-.927-.1-1.6C652.529-842.7,652.8-843.384,653-844.15Zm-6.93-2.05c-.081-3.1,5.316-4,5.659-.738a2.812,2.812,0,0,0-4.173,2.988A2.518,2.518,0,0,1,646.066-846.2Zm7.983,7.5c1.935,2.47.083,6.574-3.108,6.505a3.359,3.359,0,0,1-.754-.1c-.575-.218-2-2.35-.524-2.457.691-.055.625.885,1.278,1.058a1.717,1.717,0,0,0,2.143-2.016,2.64,2.64,0,0,0-2.883-1.818c-1.153.125-1.855,1.155-2.776,1.594-.6-.008-.377-.839-.748-1.076a12.264,12.264,0,0,0-1.7-.216c-.04-.778.427-1.058.534-1.7-.222-.591-1.062-.587-.957-1.494C648.481-840.926,652.071-841.224,654.049-838.7ZM649.8-801.449c-3.024,1.405-5.388-3.536-1.169-3.534.28.312.851.583.524,1.179-.355.22-.9-.1-1.379-.1-.256.292-.018.8.1,1.064,3.379.9,2.488-5.2,1.2-6.4a3.177,3.177,0,0,0,.006-1.709c-.6-.109-.571.425-1.189.3-.331-.6.008-1.909-.52-2.336-.464-.147-.282.353-.639.314a2.676,2.676,0,0,1-.323-1.816c-.038-.339-.443-.333-.641-.534-.03-.748-.075-1.449-.1-1.925-.3-.3-.5.423-1.064.218-.558-4.312-2.234-7.539-2.738-11.863-.329-.6-1.389-.462-2.145-.641-.28-.468.22-.689,0-1.073.55-.413,1.409-.508,1.933-.953-.351-2.849,2.1-5.35,4.808-4.147.988,1.355-1.028,2.4-1.921,1.163-2.742,1.1-.492,4.3,1.05,5.122-.02.353-.421.294-.74.318,1.252.752,3.407.585,3.735,2.26-.629.512-1.661-.226-2.57.093,1.528.794,4.3.353,4.477,2.477-.76.54-2.054-.413-2.768-.226,1.149.776,2.961.875,3.189,2.568-.663.206-1.405-.25-2.028-.427.855.895,2.151,1.895,1.913,3.526-1.48-.151-1.534-1.746-2.669-2.248.433,1.067,1.752,2.175,2.24,3.53a.619.619,0,0,1-.752.315c.645,1.119,2.014,2.03,1.7,3.743-.139.184-.615.028-.752.214.1,1.095,1.31,2.693.314,3.52C651.608-807,652.188-802.566,649.8-801.449Zm-1.206-29.79c.593.532.754,1.423,1.486,1.6,1.839.452,3.594-2.24,5.882-1.266,1.01-.492.649-2.338,1.4-3.1.76.2.74,1.175,1.163,1.715.55-.869.316-1.891.542-2.988,1.343.083,1.349,1.5,1.59,2.669a3.627,3.627,0,0,0,4.28-1.693c-2.484-.036-5.505-1.69-3.838-4.179a1.169,1.169,0,0,1,1.4.433c.079.689-.343.877-.544,1.29a3.26,3.26,0,0,0,3.741,1.064A3.609,3.609,0,0,0,664.3-839.1c-.578.03-.581.635-1.282.532a1.13,1.13,0,0,1-.1-1.812c2.056-1.5,3.866,2.715,3.512,4.7,1.445-.55,1.945-2.034,2.149-3.836-.72-.988-2.649-.782-2.984-2.141.794-.371,2.623.216,3.312-.52-.111-.647-1.187-.325-1.068-1.187.645-.5,1.8-.1,2.457-.736-.564-3.016,2.165-4.1,1.091-6.612-.383-.266-1.107.254-1.387-.218.218-.939,1.919-.429,2.659-.314,1.252.794,2.016,4.451.522,5.439a21.709,21.709,0,0,1-3.125,8.108,12.143,12.143,0,0,1-2.024,2.133c-.365.294-.909.4-1.288.754-.885.811-1.405,2.089-2.355,2.981-2.421,2.248-5.975,3.385-10.156,4.02-.147.282-.163.685-.425.853C650.773-826.237,647.932-828.309,648.59-831.24Zm6.4,79.774a17.212,17.212,0,0,1,10.243,5.162,21.814,21.814,0,0,0,1.705,2.016c1.23.954,2.415,1.236,3.3,2.464a26.5,26.5,0,0,1,2.869,6.521,19.328,19.328,0,0,0,.318,1.921c.163.4.6.405.845.853,1.33,2.439-1.548,6.959-5.03,5.862,1.078-.752,2.572-.833,2.778-2.23.211-1.506-1.54-1.663-1.913-3.215a7.857,7.857,0,0,1,.113-2.554c-.43-.6-1.581-.484-2.024-1.07.044-.607.74-.526.863-1.067-.4-.78-1.7-.677-2.351-1.187.464-1,1.744-.571,2.78-1.058a3.484,3.484,0,0,0-2.022-3.737c-.542,1.5-.931,3.778-2.889,3.631-.433-.034-.556-.357-1.066-.433a1.983,1.983,0,0,1-.107-1.288,1.257,1.257,0,0,1,1.6.214c1.383-.3,1.929-2.7.536-3.312a2.606,2.606,0,0,0-2.667.859c-.038.591.615.522.532,1.165-.143.576-.756.679-1.4.752-1.794-1.6.365-4.056,2.784-3.74-.49-1.415-1.748-2.086-3.612-2.141a3.77,3.77,0,0,1-.974,2.673c-.748-.617-.288-2.415-1.058-2.993-.643.067-.472.956-1.179.953-.762-.323-.589-1.623-.947-2.349a10.092,10.092,0,0,0-2.046.208c-1.7.014-3.25-1.24-4.475-1.083-.869.121-.978.8-1.595,1.389C647.606-751.335,653.125-753.827,654.99-751.466Zm-11.009,7.757c-1.705-.693-2.869-3.49-2.026-5.671-.756.151-2.074,0-2.012-1.284,1.169.107,1.635.123,2.344-.514.869-3.433,1.24-7.225,2.385-11,.22-.24.413.151.639-.089.252-.607-.1-1.824.431-2.155.528-.089.573.306.962.335.075-.99-.059-2.369.752-2.893-.226-.617.224-1.26.323-1.917.343.024.474.256.859.224.343-.282.387-.9.536-1.379,1.5-1.135,2.984-6.747-.726-6.525a.76.76,0,0,0-.444.748c1.865.065,1.673,1.976-.742,1.5a8.05,8.05,0,0,1-.744-1.82,2.7,2.7,0,0,1,3.953-1.589c1.776,1.159,1.373,5.7.73,7.9-.052.363.321.328.419.544.052,1.266-.716,1.685-.744,2.877.091.367.689.236.847.54-.067,1.343-.9,1.941-1.29,2.984.012.405.6.252.645.651-1.167,3.5-4.9,5.163-6.757,8.19-.248.405-.9,1.327-.212,1.81a2.311,2.311,0,0,0,1.609-1.907c1.06-.9,1.639-2.5,2.568-3.625a3.654,3.654,0,0,1,2.457-1.492c.067.7-.665,1.438-1.177,1.919.327.31.631.062,1.066.324-.327,1.209-1.959,1.1-2.889,1.7.256.746,2.062-.065,2.24.752-.595,1.048-2.322,1.284-3.413,1.49.236.536,1.365.2,1.595.758-.173,1.266-2.268.621-2.99,1.377.032.446.47.52.528.953-1.98.452-3.512,3.558-1.3,4.9.466-.784,2.679-1.413,2.673.228C647.076-743.757,645.11-743.247,643.981-743.709Zm1.264,5.13c.318-1.27,1.2-1.7.109-2.981.351-.375,1.063-.373,1.508-.637.248-.145-.024-.8.318-.855,1.441.161,3.977,2.113,5.659.328.4-1.467-.272-2.578-1.488-2.77-.623.155-.776.79-1.173,1.163-1.506-.943.05-2.453,1.707-2.133a4.037,4.037,0,0,1,2.131,1.72c1.111,2.367-.508,5.207-2.9,5.967A13.386,13.386,0,0,1,645.245-738.579Zm1.588,6.193c-.58-1.855.244-3.5,1.822-3.834-.2,1.508-.1,2.909,1.056,3.423.811.347,1.554-.208,2.461-.095C651.732-730.356,647.8-730.314,646.834-732.386Zm7.566,8.035c-2.538-.689-2.871-5.009.113-5.56-1.087,2.338.925,4.417,3.52,3.425A2.891,2.891,0,0,1,654.4-724.351Zm-2.016-7.16a14.9,14.9,0,0,1,1.719-3.524c.744-.921,2.488-2.619,4.06-2.236a1.8,1.8,0,0,1,.849,2.469c-.849,1.976-3.991,3.3-5.775,4.149C653.063-731.041,652.87-731.436,652.384-731.511Zm6.5.875c-1.776-2.036,2.07-3.217,1.3-6.191-.675-2.617-4.717-.925-6.193.522-.538-.145-.835-.522-1.385-.647.347-.476-.127-.893-.1-1.391a10.048,10.048,0,0,1,4.806-1.383c.383-1.9,1.986-.593,2.56.22.57-.032.945-.568,1.5-.3a1.182,1.182,0,0,1-.1,1.375c.085.873.954.968,1.482,1.4.153.865-.52.889-.756,1.385a13.642,13.642,0,0,1-1.4,4.8C660.082-730.505,659.526-730.729,658.887-730.636ZM664-724.972c.127.7.107,1.232-.316,1.6-.448-.052-.633-.371-1.07-.432-.665.161-.8.835-1.712.748-.359-.474-.028-.986,0-1.6.07-2.147-.532-4.584.546-6.3a5.106,5.106,0,0,1,1.83-1.607c2.123-.73,4.9.841,4.572,3.429-.115,1.209-2.858,1.786-2.556.212.135-.766,1.03-.328,1.387-1.058-.647-2.395-3.693-1.256-3.524,1.052.119,1.667,1.639,1.923,2.334,3.217C665.249-725.23,664.471-725.244,664-724.972Zm31.829-1.187c-.546-1.22.177-3.085,1.389-2.026.04.6-.746.4-.754.945,1.574,1.943,2.371-1.52.968-2.232-3.016-.385-5,1.083-7.473,1.576.008.488.558.437.635.855-.127.808-1.258.609-1.816.962-.2.157-.012.7-.214.859-.409.306-1.215.192-1.711.427-.24.073-.044.589-.1.853-.827.4-2.034.391-2.363,1.258a60.438,60.438,0,0,0-7.582,1.6c-.244.049-.417.278-.639.315-2.119.337-5.257-.514-4.173,2.447-1.04.466-1.639-.77-1.486-1.5-.877-.677-2.189-.28-3.207-.651-1.923-.691-3.086-4.29.228-4.264a1.872,1.872,0,0,1,0,2.443c1.355,2.056,3.512-.324,4.378-1.367.331-.057.413.149.641.21.788-.672.4-2.526,1.607-2.762.3.415-.264,1.219.1,1.7,1.141-.377.417-2.653,1.714-2.871.341.48-.256,1.895.526,1.921,1.077-.9.524-3.405,2.26-3.635.623.6-.121,1.641.2,2.455,1.1-.566,1.615-2.284,3.1-2.119.177,1.4-1.331,2-2.242,2.659-1.405,1.7-3.61,2.588-5.136,4.161,3.731-.246,5.477-3.953,8.015-6.066a9.643,9.643,0,0,1,3.213-1.915c.292.319.063.486.107,1.064,1,.258,1.486-1.308,2.457-1.054.25.23-.355.726,0,1.06,1.435-.623,2.437-1.679,4.485-1.691.153.127.071.5.21.643,1.843-.443,2.854-1.052,4.491-.423C700.815-729.12,699.132-724.355,695.83-726.159ZM724.288-713.6c-1.087-1.127-1.57-4.04.016-5.457.839-.722,2.659-.818,3.205.008,1.115,1.714-.843,3.637-1.925,2.246-.855,3.205,3.375,3.461,5.128,2.264a3.944,3.944,0,0,0,1.4-2.875c.016-.266.306-.544.318-.752.325-3.038-1.506-6.668-4.36-7.164-.607,1.691-.933,3.7-2.9,4.044-.242-1.312.464-3.647-.945-4.052-.913.688-.863,2.337-2.256,2.538-.474-.9-.135-2.611-.949-3.193-.778.254-1.278,1.375-1.921,1.387-.875-.345-.575-1.651-1.282-2.242a6.26,6.26,0,0,0-2.776-1.29c-2.125-.311-5.306-.129-5.447,1.266.311.387.689-.182,1.4,0,1.29,1.314-.834,2.522-1.941,1.806a2.612,2.612,0,0,1,1.3-4.159,40.871,40.871,0,0,1,7.362.022c-.085.943,1.139,2.02,1.693,2.985.837-1.056-.657-2.217-1.157-2.984a29.218,29.218,0,0,1,5.874.014.954.954,0,0,1,.1.641c.6.405,1,.986,1.607,1.379.453.752.526,1.885,1.048,2.578a2.492,2.492,0,0,0-.2-2.776c-.5-.766-1.453-1.026-1.713-1.71,6.445-.125,10.769,2.7,10.765,9.839,0,2.343-.9,3.619-1.838,5.229C731.379-712.076,726.505-711.334,724.288-713.6Zm4.824-5.005c-.222-1-1.32-1.351-1.8-2.03a5.925,5.925,0,0,1,1.709-2.669c2.484,1.137,3.26,8.549-.764,7.8C728.708-716.491,729.4-717.311,729.112-718.605Zm14.831,7.511a2.677,2.677,0,0,1-2.346.953c-.607-.125-.875-.746-1.405-.746-.563-.006-.889.853-1.6.951-1.117.171-1.341-.673-2.026-1.182a2.943,2.943,0,0,1-1.6.214,47.782,47.782,0,0,1,2.358-4.689c.343.109.413.524.637.748,1.3-.754,1.417,1.01,2.03,1.073.718.077.635-.881,1.284-1.171a1.765,1.765,0,0,1,.746.433c.415-.087.393-.6.75-.756.929,1.318,1.7,2.808,2.56,4.173C744.849-710.8,744.517-711.008,743.942-711.094Zm23.937-13.694a1.263,1.263,0,0,1-.516-2.465c-1.4-.439-5.459-1.107-6.618.827-.387.629-.181,1.362-.649,2.135-1.155-.123-1.468-1.084-2.339-1.49-1.016.466-.074,2.393-.764,3.29-1.111.28-1.738-.954-2.661-1.49-.288.562.129,1.84-.431,2.125-1.994-.038-2.218-1.84-2.554-3.528-5.326.887-5.717,11.851.5,11.43,1.363-.083,2.625-.7,2.469-2.558-.683-.044-.758.518-1.389.53-2.2-.867-.474-4.29,1.921-3.3.917.369,1.524,2.209,1.282,3.633-.824,4.753-8.827,3.646-10.783.5a10.634,10.634,0,0,1-.732-7.793c1.323-4.04,4.971-6.3,10.164-5.955-.619,1.173-2.893,2.161-2.373,4.483.988-1.157,1.524-2.754,2.689-3.734.044-.46-.153-.53,0-.841,3.268-.2,9.223-.742,12.371-.294C769.133-729.052,770.409-724.9,767.879-724.788Zm-17.518,7.733c.063.484.359.595.436,1.181-2.927-.2-2.978-6.285-.421-6.947.762.566,1.226,1.421,1.913,2.036C751.643-719.579,750.1-719,750.361-717.055Zm63.23-5.374c-.732,1.631-3.086,1.853-4.808,2.234.256,1.187-.256,2.6-1.506,2.228-.3-.647.5-1.044.323-1.925-.117-.508-.536.393-.431-.433-3.917-.361-6.32-2.137-10.463-1.931-.143-1.032-1.441-.917-2.125-1.4-.054-.389.127-.522.212-.75-.635-.294-1.947.095-2.447-.323-.083-.407.173-.464.1-.867-.992-.226-1.784-.06-2.774-.222-.05-.24-.208-.534,0-.736-.752-.587-1.824-.208-2.667-.651-.157-.367-.228-.49,0-.861-1.25-1.334-6.965-1.516-6.826.734a.952.952,0,0,0,1.7.532c-.228-.377-.72-.5-.532-1.282a2.292,2.292,0,0,1,1.391-.307c2.568,3.528-4.6,4.505-3.425.206.7-2.562,5.412-2.7,7.168-1.052.823-1.51,3.229-.1,4.582.115.28-.179.159-.78.534-.853a9.451,9.451,0,0,1,3.312,1.395c.441.079.2-.506.643-.421a3.14,3.14,0,0,1,1.7,1.074c1.969,2.1,3.55,4.1,6.289,5.336.4.2.881.065,1.175.552.692.02.9.331,1.377.317A3.866,3.866,0,0,0,803.338-723c0-.139,0-.284,0-.427-1.453-.4-2.215-1.49-3.306-2.24-.532-1.583-2.242-1.964-2.659-3.643,1.826-.635,2.721,1.375,3.721,2.256.673-.506-.087-1.857,1.079-1.919.53.579.028,2.163.627,2.659.189-.657-.1-1.728.76-1.923,1.008.248.333,2.169.955,2.786.385-.345.159-1.326.637-1.593,1.085.27.663,2.034,1.063,2.982.334-.077.234-.6.645-.623.567,1.316,2.008,1.7,2.988,2.336,1.02.175,2.433.226,2.881-.518-.427-.6-2.044-2.865-.1-2.77C813.889-725.578,814.064-723.512,813.591-722.429Zm4.477-1.607c-.692.064-.76-.518-1.06-.845-.689.191-.818.958-1.5,1.173a7.512,7.512,0,0,1-.74-2.04c-.187-.381-1-.125-1.066-.637.448-1.135,1.26-1.784,1.286-3.1a2.667,2.667,0,0,0-2.772-2.883c-1.3.173-1.875,2.2.1,2.234.905,2.348-2.274,2.659-2.451.324a3.426,3.426,0,0,1,1.712-3.316C816.044-735.523,819.66-728.77,818.068-724.036Zm6.416-1.367c-.022.2.125.234.1.433-.978-.175-3.191.1-3.415-1.4,2.137-.206,3.483-1.413,2.9-4.05h.218C826.51-729.955,826.518-726.072,824.484-725.4Zm-5.1-11.444c.385-1.018,1.982-1.226,3.2-.611,1.643.8,2.7,2.967,2.979,5.021-.405.48-1.185.583-1.492,1.171C821.559-731.812,818.273-733.876,819.384-736.847Zm5.771.351c-1.111-.248-1.546-1.655-2.659-1.514-.057-.2-.244-.258-.226-.524-3.026-1.582-5.054,1.671-3.425,4.367.476.8,1.349,1.115,1.591,1.82a3.5,3.5,0,0,1-.425,1.167,6.832,6.832,0,0,0-1.5.2c-1.443-1.6-1.776-4.274-2.1-6.715a5.027,5.027,0,0,1,1.169-.647c.034-.528-.445-.99-.1-1.49.462-.266.788.081,1.278.111.7-.306.27-1.258,1.282-1.284.409-.008.677.526,1.063.649a8.227,8.227,0,0,0,1.072,0,10.183,10.183,0,0,1,4.05,1.5,13.86,13.86,0,0,1,.208,1.6A2.572,2.572,0,0,0,825.156-736.5Zm4.893.657c.393-.312.966.1,1.294-.1.044.927.833,1.478.843,2.548.032,1.728-1.328,2.709-2.885,3.1-1.367-.4-2.594-.9-2.665-2.572C828.566-732.469,830.473-733.267,830.048-735.839Zm-1.159-3.526a7.715,7.715,0,0,1-3.514-1.087c-2.957-2.1-3.411-7.858,1.833-7.682,1.863.133,2.661,4.407.1,2.887-.246-.3-.036-.831,0-1.191-.705-1.328-2.274-.167-2.461.968a2.385,2.385,0,0,0,2.016,2.788c2.407.327,3.139-1.693,4.493-2.246A3.482,3.482,0,0,0,832.745-743c-.361,1.222.883,1.27.748,2.153C833.324-739.881,830.024-739.339,828.889-739.365Zm7.082-9.924c-.19,2.28-.657,5.431-3.32,4.578a2.325,2.325,0,0,1-.107-1.711,1.843,1.843,0,0,1,1.7.121c.488-1.7-.794-3.354-1.685-4.376-.006-.405.385-.4.431-.754-1.044-.321-2.522-.185-3.314-.754-.1-1.222,1.643-.222,2.034-.74-1.276-.712-3.983-.022-4.157-1.828.093,0,.077-.127.1-.2.671-.325,1.433.111,2.248.008-.639-.865-3.153-.778-3.308-2.473.71-.486,1.746.5,2.24-.107-.635-.836-2.127-1.254-1.591-2.679,2.387,1.252,3.493,4.689,5.967,6.217a11.574,11.574,0,0,0-1.913-3.419c-1.109-1.592-3.778-3.272-5.116-4.925a2.6,2.6,0,0,1-.528-1.5c0-.379.369-.671.324-1.066-.056-.5-.264-.736-.855-1.173.786-1.323.2-2.62.125-3.963a.79.79,0,0,1,.74-.21c-1.33-3.153-.639-9.39,3.542-7.574a10.719,10.719,0,0,1,.962,2.143c.107,1.641-2.836,2.923-2.991.625.212-.452,1.129-.209,1.6-.411-.016-.129.024-.183.111-.216.129-.927-.865-1.131-1.6-.857-1.542,1.36-.52,4.334-.23,5.985.284.294.566.04.85.21.19.669-.06,1.169.216,1.81.5.052.734-.185,1.272-.093a11.037,11.037,0,0,0,.319,1.911c.3.248.526-.1.853.119.089.526.429.78.321,1.49.21.413.361.252.959.32a8.98,8.98,0,0,1,.21,2.034c.335.212.627-.087.956.214-.022,1.365.518,2.546.631,4.062,1.23,2.223,1.219,5.67,2.221,8.118a.178.178,0,0,1,.222.111c.558.109.877-.129,1.385.1C837.868-748.995,836.761-749.011,835.971-749.289Z" transform="translate(0 0)" fill="#947c4e"></path><path d="M795.078-864.728l-.891-3.018-124.748,0-1,2.814c-4.518,12.71-13.93,17.215-19.127,18.766l-3.026.905-.182,68.822,2.959.955c13.416,4.26,18.286,13.9,20,19.24l.941,2.959,123.591.163.821-3.183c3.522-13.631,15.411-18.455,18.961-19.6l2.937-.951L816.172-845,813-845.809C800.706-848.972,796.174-861.094,795.078-864.728Zm20.63,20.1c0,.363.135,67.088.135,67.421-.29.1-2.611.845-2.611.845-3.613,1.171-15.69,6.068-19.276,19.935,0,0-.649,2.516-.734,2.822l-122.869-.153c-.1-.3-.837-2.627-.837-2.627-1.742-5.445-6.689-15.216-20.3-19.558,0,0-2.336-.752-2.631-.841,0-.339.177-67.78.177-68.12.294-.1,2.685-.81,2.685-.81,5.292-1.587,14.847-6.159,19.433-19.056,0,0,.78-2.225.889-2.514.335,0,123.722.006,124.067.008.087.311.8,2.693.8,2.693,1.1,3.7,5.7,16,18.241,19.225C812.882-845.36,815.385-844.717,815.708-844.63Z" transform="translate(7.361 21.312)" fill="#947c4e"></path><path d="M793.479-864.951l-.677-2.238L669.658-867.2l-.75,2.082c-4.673,13.162-14.442,17.838-19.85,19.455l-2.226.669-.177,67.191,2.193.71c13.879,4.421,18.933,14.407,20.709,19.961l.7,2.189,121.92.167.615-2.359c3.665-14.178,15.988-19.179,19.691-20.374l2.163-.708-.125-66.483-2.352-.6C799.315-848.613,794.612-861.186,793.479-864.951Zm20.1,20.989c0,.718.129,64.391.127,65.06-.441.145-1.528.492-1.528.492-3.8,1.234-16.5,6.4-20.31,21.043,0,0-.3,1.161-.419,1.649-.724,0-119.827-.169-120.5-.171-.149-.446-.484-1.52-.484-1.52-1.847-5.741-7.047-16.028-21.326-20.586,0,0-1.089-.361-1.538-.48,0-.683.173-65.129.173-65.82.453-.139,1.564-.469,1.564-.469,5.578-1.661,15.653-6.467,20.461-20.03,0,0,.371-1.042.522-1.478.667,0,121.093.018,121.787.02l.476,1.562c1.165,3.9,6.019,16.871,19.352,20.294C811.932-844.4,813.1-844.089,813.579-843.962Z" transform="translate(7.92 21.866)" fill="#947c4e"></path><path d="M789.062-865.608l-.036-.089-118.761-.008-.028.075c-5.129,14.419-15.877,19.552-21.832,21.332l-.083.028-.165,62.742.083.018c15.184,4.836,20.715,15.817,22.668,21.937l.034.083,117.372.167.016-.1c4.058-15.663,17.627-21.179,21.695-22.489l.07-.024-.117-61.95-.087-.014C795.489-847.6,790.316-861.453,789.062-865.608Zm20.806,83.5c-4.165,1.363-17.631,6.919-21.735,22.531l-117.025-.151c-1.986-6.162-7.568-17.109-22.713-21.967,0-.163.163-62.232.163-62.393,6.005-1.812,16.717-6.993,21.88-21.384.153,0,118.253.012,118.416.008,1.3,4.278,6.533,18.02,20.886,21.765C809.739-843.516,809.856-782.274,809.868-782.109Z" transform="translate(9.446 23.39)" fill="#947c4e"></path><path d="M679.917-842.806a10.367,10.367,0,0,1-1.082-.085,35.055,35.055,0,0,1-6.427,7.646q-3.75,3.157-7.007,3.157-4.215,0-4.213-4.449,0-3.7,3.8-9.356a22.531,22.531,0,0,0,4.963.665,29.575,29.575,0,0,0,12.432-2.5,17.85,17.85,0,0,0,4.463-2.881q2.585-2.247,2.586-4.419a2.78,2.78,0,0,0-1.54-2.546,6.512,6.512,0,0,0-3.086-.665,22.924,22.924,0,0,0-8.872,2.25,44.674,44.674,0,0,0-8.082,4.59,39.763,39.763,0,0,0-4.79,4.213q-4.085-1.959-4.084-4.88a4.224,4.224,0,0,1,2.246-3.838,8.608,8.608,0,0,1,4.528-1.127,9.293,9.293,0,0,1,3.032.667h.21l.083-.042a4.931,4.931,0,0,0-2.381-1,13.481,13.481,0,0,0-2.671-.288,8.956,8.956,0,0,0-4.586,1.165,4.21,4.21,0,0,0-2.419,3.8q0,3.338,5.505,6.092-4.629,5.8-4.63,10.3a5.476,5.476,0,0,0,1.462,4.024,5.35,5.35,0,0,0,4,1.48,11.763,11.763,0,0,0,5.842-1.75q1.415-.874,5.006-3.629-1.337,2.3-4.171,6.34a30.163,30.163,0,0,1-6.259,7.05,10.777,10.777,0,0,1-6.34,2.254,5.762,5.762,0,0,1-2.254-.458c-.919-.417-1.375-.962-1.375-1.629a1.163,1.163,0,0,1,.748-1.21.288.288,0,0,0,.042-.125q0-1.255-1.335-1.254a1.647,1.647,0,0,0-1.272.584,2,2,0,0,0-.52,1.379q0,1.627,2.336,2.5a10.985,10.985,0,0,0,3.669.584,17.172,17.172,0,0,0,6.965-1.625,18.337,18.337,0,0,0,6.261-4.925,57.326,57.326,0,0,0,4.713-6.588q4-6.3,6.507-9.807A8.974,8.974,0,0,1,679.917-842.806Zm-4.836-12.222a16.519,16.519,0,0,1,8.257-2.419q4,0,4.008,2.711,0,3.417-5.382,6.425a23.734,23.734,0,0,1-8.805,2.586,25.686,25.686,0,0,1-2.959.208,20.8,20.8,0,0,1-4.881-.835A29.661,29.661,0,0,1,675.081-855.029Z" transform="translate(12.81 30.973)" fill="#947c4e"></path><path d="M683.91-831.824a5.865,5.865,0,0,0,3.508-1.671,34.973,34.973,0,0,0,2.955-2.856,5.35,5.35,0,0,0-.583,2.191q0,2.338,2.173,2.336a5.861,5.861,0,0,0,3.5-1.671,36.3,36.3,0,0,0,3.379-3.292c.1-.111.174-.193.268-.3a5.846,5.846,0,0,0-.351,1.923q0,3.3,3.451,3.3a8.2,8.2,0,0,0,5.2-2.171q.874-.747,4.036-4.171c.855-.919,1.286-1.514,1.286-1.794,0-.085-.05-.123-.167-.123-.133,0-.3.194-.5.583a11.772,11.772,0,0,1-1,1.209q-1.037,1.128-2.076,2.254a10.893,10.893,0,0,1-2.326,1.959,6.133,6.133,0,0,1-2.994,1q-2.244,0-2.244-1.959a7.989,7.989,0,0,1,1.334-3.548,29.227,29.227,0,0,0,4-1.294,17.941,17.941,0,0,0,3.673-2.042q2.292-1.672,2.292-3.213c0-.807-.552-1.212-1.667-1.212q-3.423,0-7.8,3.842a15.263,15.263,0,0,0-3.856,4.711c-.546.623-1.22,1.316-2.048,2.106-1.792,1.714-3.092,2.564-3.9,2.564-.641,0-.962-.357-.962-1.08a5.527,5.527,0,0,1,1.169-2.921l11.807-17.478a2.924,2.924,0,0,0,.585-1.544c0-.028-.045-.25-.127-.669h-2.752a1.356,1.356,0,0,1,.165.584,2.394,2.394,0,0,1-.5,1.169l-11.6,17.187c-.137.2-.244.4-.363.593-.458.492-.966,1.012-1.578,1.594-1.792,1.714-3.094,2.564-3.9,2.564-.641,0-.96-.357-.96-1.08a5.478,5.478,0,0,1,1.169-2.921l11.8-17.478a2.906,2.906,0,0,0,.585-1.544c0-.028-.042-.25-.125-.669h-2.756a1.345,1.345,0,0,1,.169.584,2.41,2.41,0,0,1-.5,1.169l-11.6,17.187-.022.036c-.3.328-.631.683-1.02,1.089q-1.754,1.878-2.816,2.834a3.02,3.02,0,0,1-1.9.959c-.555,0-.835-.347-.835-1.042a4.39,4.39,0,0,1,.835-2.417l6.509-9.64h-2.669l-1.085,1.586c-.03-1.222-.766-1.836-2.212-1.836q-3.005,0-7.717,3.994-4.342,3.665-4.338,7.324c0,2.109.873,3.161,2.629,3.161a5.919,5.919,0,0,0,3.461-1.736q.166-.169,2.834-2.812a9.1,9.1,0,0,0-.623,2.544q0,2,1.875,2a5.183,5.183,0,0,0,3.3-1.714c.873-.794,1.9-1.843,3.064-3.09a5.644,5.644,0,0,0-.73,2.51C681.741-832.6,682.467-831.824,683.91-831.824Zm21.15-10.053c.387-.448,1.183-1.24,2.377-2.379s2.1-1.714,2.711-1.714c.639,0,.961.268.961.794q0,1.584-2.338,3.463a12.622,12.622,0,0,1-5.757,2.5A21.733,21.733,0,0,1,705.061-841.877Zm-35.288,8.465a1.342,1.342,0,0,1-1.5-1.536,5.355,5.355,0,0,1,.955-2.746,31.436,31.436,0,0,1,3.925-4.987q3.123-3.287,5-3.288c.863,0,1.294.53,1.294,1.582a1.973,1.973,0,0,1-.29,1.081l-1.335,1.994Q672.521-833.408,669.773-833.412Z" transform="translate(27.506 32.38)" fill="#947c4e"></path><path d="M699.562-838.588a8.915,8.915,0,0,0,3.026-.625,9.15,9.15,0,0,0,2.727-1.5l1.839-1.5c.583-.387.875-.7.875-.92a.135.135,0,0,0-.083-.123,6.493,6.493,0,0,0-1,.792,7.7,7.7,0,0,1-2.482,1.5,7.785,7.785,0,0,1-2.858.627,4.02,4.02,0,0,1-3.127-1.4,4.759,4.759,0,0,1-1.254-3.276,11.039,11.039,0,0,1,1.042-4.673,13.876,13.876,0,0,1,4.673-5.171,14.775,14.775,0,0,1,8.759-2.754,27.015,27.015,0,0,1,4.048.292,67.021,67.021,0,0,0,6.761.833,23.172,23.172,0,0,0,7.672-1.25c.558-.194.835-.391.835-.583,0-.059-.024-.085-.083-.085a3.61,3.61,0,0,0-.837.377,7.944,7.944,0,0,1-3.544.625,41.647,41.647,0,0,1-6.007-.647,41.341,41.341,0,0,0-6.048-.647,21.831,21.831,0,0,0-7.844,1.482,20.06,20.06,0,0,0-6.674,4.108q-4.841,4.629-4.838,9.426a5.665,5.665,0,0,0,1.042,3.59A4.024,4.024,0,0,0,699.562-838.588Z" transform="translate(57.173 30.51)" fill="#947c4e"></path><path d="M721.3-846.761l.167-.458h-3.215a57.109,57.109,0,0,1,3.419-5.592c1.365-1.891,2.363-2.973,3.006-3.25a4.706,4.706,0,0,0,1.209-.587.281.281,0,0,0-.208-.082,14.008,14.008,0,0,0-2.9,1.306,16.026,16.026,0,0,0-4.568,3.594q-.959,1.037-3.588,4.61h-1.709l-.25.542h1.671q-1.923,3.214-3.84,6.427a20.328,20.328,0,0,1-4.8,5.38,11.455,11.455,0,0,1-7.007,2.292,7.3,7.3,0,0,1-2.584-.5q-1.714-.623-1.714-1.707a1.093,1.093,0,0,1,.377-.814c.252-.234.375-.411.375-.52,0-.641-.458-.959-1.377-.959a1.734,1.734,0,0,0-1.292.56,1.831,1.831,0,0,0-.542,1.316q0,1.63,2.627,2.375a14.015,14.015,0,0,0,4.088.544,18.483,18.483,0,0,0,9.676-2.669,18.807,18.807,0,0,0,5.509-5.257q1.252-1.708,4.046-6.549Z" transform="translate(53.915 32.507)" fill="#947c4e"></path><path d="M733.087-842.827c-2.9,3.068-5.312,4.619-7.239,4.619q-2.31,0-2.308-1.959,0-2.8,3.669-7.007,3.423-3.925,4.755-3.923a1.477,1.477,0,0,1,1.187.583,2,2,0,0,1,.48,1.3v.46c0,.22.073.333.212.333.22,0,.52-.272.9-.812a2.584,2.584,0,0,0,.564-1.192q0-1.249-2.211-1.25a9.4,9.4,0,0,0-4.838,1.647,22.313,22.313,0,0,0-4.8,3.985,14.028,14.028,0,0,0-1.722,2.334c-.4.462-.9,1.01-1.534,1.669q-1.751,1.878-2.81,2.834a3.028,3.028,0,0,1-1.9.959q-.835,0-.835-1.042a4.375,4.375,0,0,1,.835-2.417L722-851.35h-2.667l-1.084,1.587c-.03-1.222-.766-1.837-2.216-1.837q-3,0-7.715,3.994-4.342,3.665-4.338,7.324,0,3.163,2.625,3.161a5.914,5.914,0,0,0,3.463-1.736c.115-.113,1.056-1.048,2.836-2.812a9.1,9.1,0,0,0-.623,2.544q0,2,1.875,2a5.178,5.178,0,0,0,3.3-1.714q1.424-1.288,3.336-3.377c.165-.173.286-.308.433-.468a5.406,5.406,0,0,0-.474,2.012q0,3.713,3.479,3.713a8.374,8.374,0,0,0,5.29-1.962c.476-.391,1.1-.958,1.887-1.709.508-.5.968-.974,1.4-1.437a5.721,5.721,0,0,0-.258,1.645c0,2.2,1.155,3.3,3.451,3.3a8.187,8.187,0,0,0,5.2-2.171q.871-.747,4.034-4.171c.861-.919,1.294-1.514,1.294-1.794,0-.084-.058-.123-.17-.123-.137,0-.3.193-.5.583a11.832,11.832,0,0,1-1,1.209c-.691.752-1.389,1.5-2.078,2.254a10.9,10.9,0,0,1-2.33,1.959,6.1,6.1,0,0,1-2.987,1q-2.244,0-2.244-1.959a7.936,7.936,0,0,1,1.335-3.548,29.4,29.4,0,0,0,4-1.294,17.886,17.886,0,0,0,3.667-2.042q2.3-1.672,2.3-3.213,0-1.209-1.671-1.211-3.42,0-7.8,3.842A14.671,14.671,0,0,0,733.087-842.827Zm-25.273,4.159a1.343,1.343,0,0,1-1.5-1.536,5.372,5.372,0,0,1,.956-2.745,31.434,31.434,0,0,1,3.927-4.987q3.127-3.287,5-3.288c.863,0,1.294.53,1.294,1.583a1.942,1.942,0,0,1-.294,1.081l-1.334,1.994Q710.563-838.664,707.814-838.668Zm33.409-10.843c1.2-1.141,2.1-1.714,2.713-1.714.635,0,.956.268.956.794,0,1.056-.774,2.211-2.337,3.463a12.608,12.608,0,0,1-5.753,2.5,21.908,21.908,0,0,1,2.042-2.667C739.238-847.58,740.026-848.373,741.223-849.512Z" transform="translate(66.15 37.636)" fill="#947c4e"></path><path d="M680.428-817.318h2.2v-.423h-2.2v-1.543h2.351v-.423h-2.811v4.534h2.888v-.423h-2.427Z" transform="translate(41.761 70.118)" fill="#947c4e"></path><path d="M682.459-818.522a.864.864,0,0,1,.97-.819,1,1,0,0,1,.877.442l.4-.314a1.558,1.558,0,0,0-1.278-.55,1.321,1.321,0,0,0-1.466,1.286c0,1.659,2.32.95,2.32,2.228a.905.905,0,0,1-.97.826,1.155,1.155,0,0,1-1.034-.55l-.415.3a1.71,1.71,0,0,0,1.429.673,1.407,1.407,0,0,0,1.49-1.312C684.783-817.946,682.459-817.3,682.459-818.522Z" transform="translate(43.687 70.06)" fill="#947c4e"></path><path d="M683.675-819.285h1.516v4.11h.461v-4.11h1.52v-.421h-3.5Z" transform="translate(45.527 70.118)" fill="#947c4e"></path><path d="M687.387-819.707h-1.5v4.532h1.5a2.269,2.269,0,0,0,2.383-2.266A2.27,2.27,0,0,0,687.387-819.707Zm-.145,4.11h-.895v-3.687h.895a1.837,1.837,0,0,1,2.028,1.842A1.837,1.837,0,0,1,687.242-815.6Z" transform="translate(47.772 70.118)" fill="#947c4e"></path><path d="M689.494-818.759l.291.347.813-.718v3.953h.458v-4.53h-.409Z" transform="translate(51.439 70.118)" fill="#947c4e"></path><path d="M693.283-817.536v-.012a1.063,1.063,0,0,0,.679-1.012,1.2,1.2,0,0,0-1.268-1.185,1.2,1.2,0,0,0-1.268,1.185,1.06,1.06,0,0,0,.679,1.012v.012a1.17,1.17,0,0,0-.845,1.189,1.335,1.335,0,0,0,1.433,1.288,1.337,1.337,0,0,0,1.435-1.288A1.171,1.171,0,0,0,693.283-817.536Zm-1.4-.986a.785.785,0,0,1,.808-.8.782.782,0,0,1,.8.8.779.779,0,0,1-.8.8A.781.781,0,0,1,691.886-818.521Zm.808,3.042a.912.912,0,0,1-.974-.929.909.909,0,0,1,.974-.927.907.907,0,0,1,.971.927A.91.91,0,0,1,692.694-815.48Z" transform="translate(53.234 70.079)" fill="#947c4e"></path><path d="M694.724-817.9a1.237,1.237,0,0,0-.625.155l-.012-.014,1.234-1.945h-.54l-1.228,1.992a2.2,2.2,0,0,0-.387,1.218,1.382,1.382,0,0,0,1.469,1.4,1.384,1.384,0,0,0,1.474-1.4A1.356,1.356,0,0,0,694.724-817.9Zm-.089,2.383a.955.955,0,0,1-1.01-.978.956.956,0,0,1,1.01-.982.956.956,0,0,1,1.012.982A.955.955,0,0,1,694.636-815.52Z" transform="translate(55.169 70.118)" fill="#947c4e"></path><path d="M697.478-819.707h-.589l-1.83,2.933v.522h1.955v1.076h.464v-1.076h.653v-.421h-.653Zm-.464,3.034h-1.572L697-819.247h.01Z" transform="translate(57.092 70.118)" fill="#947c4e"></path><path d="M684.243-827.36V-838.6h-1.524v4.667H676.9V-838.6h-1.524v11.236H676.9V-832.5h5.823v5.142Z" transform="translate(37.093 50.929)" fill="#947c4e"></path><path d="M686.908-838.737a5.715,5.715,0,0,0-5.854,5.9,5.718,5.718,0,0,0,5.854,5.906,5.72,5.72,0,0,0,5.858-5.906A5.717,5.717,0,0,0,686.908-838.737Zm0,10.378a4.228,4.228,0,0,1-4.237-4.477,4.227,4.227,0,0,1,4.237-4.473,4.226,4.226,0,0,1,4.237,4.473A4.227,4.227,0,0,1,686.908-828.359Z" transform="translate(42.865 50.786)" fill="#947c4e"></path><path d="M692.658-827.361v-9.807h3.618V-838.6h-8.76v1.429h3.619v9.807Z" transform="translate(49.429 50.928)" fill="#947c4e"></path><path d="M694.384-832.392h5.331v-1.427h-5.331v-3.348h5.731V-838.6H692.86v11.236H700.4v-1.429h-6.014Z" transform="translate(54.858 50.929)" fill="#947c4e"></path><path d="M697.866-838.6v11.236h6.68v-1.429h-5.154V-838.6Z" transform="translate(59.944 50.929)" fill="#947c4e"></path><path d="M687.994-877.989c-.373-.246-.583.393-.583.393a2.541,2.541,0,0,1-1.266-.347c-.808-.6-1.107-.357-1.107-.357-.482.2,0,.921,0,.921l.629.77.327-.488a6.9,6.9,0,0,0,1.268.488l.048-.069a.264.264,0,0,1-.028-.419c.129-.183.665,0,.665,0l.528.075.024-.584a5.844,5.844,0,0,0,.837.131c1.2.02,1.476-.26,1.476-.26a3.849,3.849,0,0,1-.9-.526A2.159,2.159,0,0,1,687.994-877.989Zm-2.109.619s-.417-.026-.54-.24v-.343h.371a.779.779,0,0,0,.377.373Z" transform="translate(46.695 10.546)" fill="#947c4e"></path><path d="M681.586-873.695s-.111,1.415,1.8,1.415a2.4,2.4,0,0,0,1.268-.4s-.149.482.458,1.211a.763.763,0,0,1,0,1.02s-.409.311.83.177c0,0,2.764-.558,2.814-3.151a2.441,2.441,0,0,0-.558-1.415s-1.044-1.242-.405-1.962a1.169,1.169,0,0,1,1.161-.431,14.244,14.244,0,0,0,2.006.177s2.286.242,2.645-1.57c0,0,.149-1.385-1.185-1.323,0,0-.736.024-.633.558,0,0,.224.363-.1.371,0,0-.234.05-.258-.23,0,0,0-.56-.877-.538a.548.548,0,0,0-.486.71l.026.248s-.184.095-.427-.357c0,0-.208-.434-1.137-.375,0,0-1.155.053-.014.809a.883.883,0,0,1-.464.964s-.587.175-.579.53c0,0-.492-.054-.564.371a.539.539,0,0,0-.659.276.63.63,0,0,1-.784.036,1.109,1.109,0,0,0-1.471.371,13.616,13.616,0,0,0,.56,1.7s.183.192,1.135.226a4.577,4.577,0,0,0-1.1.689s-1.24.808-1.935.212c0,0-.621-.444-.139-.732,0,0,.691-.369.2-.453C682.7-874.56,681.586-874.626,681.586-873.695Zm3.366-1.8v-.458l.712.046.107.506A1.825,1.825,0,0,1,684.952-875.495Zm2.221,1.873a.426.426,0,0,0-.391-.587c-.442-.07-.379-.252-.379-.252.089-.554.734-.462.734-.462.685.062.508,1.538.508,1.538-.133,1.228-.826,1.179-.826,1.179a.835.835,0,0,1-.772-.292,1.454,1.454,0,0,0-.945-.617C685.72-873.987,687.174-873.622,687.174-873.622Z" transform="translate(43.403 8.919)" fill="#947c4e"></path><path d="M689.882-877.548h-1.06a.879.879,0,0,1-.075.425,1.068,1.068,0,0,1-.968,0c-.49-.02-.458.494-.458.494a1.213,1.213,0,0,1-1.288,0c-.206-.339-.433-.264-.433-.264-.179,0-.145.534-.145.534l.046.555a1.357,1.357,0,0,1,.363.365h.17l.073-.413c.03-.514.762-.2.762-.2a1.231,1.231,0,0,0,.591.1.356.356,0,0,0,.339-.4l1,.169h.32l-.093-.413,1.875.149a2.046,2.046,0,0,1,.423-.469v-.345l-.79-.048-.655-.069Z" transform="translate(47.333 11.359)" fill="#947c4e"></path><path d="M690.337-876.675l.02.28-1.6.074v.2c-.093.028-1.748-.2-1.748-.2-.216.153-.149.929-.149.929a1.154,1.154,0,0,1-1.109-.476l-.218.018a2.565,2.565,0,0,1-.165.712,1.357,1.357,0,0,0-.149.772h.27v-.528l1.718.228-.067-.772,1.971.1v-.2a2.19,2.19,0,0,1,.762-.113c.536.022.649-.1.649-.1a.513.513,0,0,1-.036-.413l1.52.077c.679.04.468-.407.468-.407l-.065-.185h-2.076Z" transform="translate(47.094 12.246)" fill="#947c4e"></path><path d="M681.531-869.08s.885.113.845-1.31V-877.2s-.062-.911.623-1.143c0,0,.9-.351.645-.692,0,0-.141-.26-.653-.26,0,0-2.395-.125-2.395,3.635v4s.04,1.349.093,1.719C680.689-869.935,680.723-869.07,681.531-869.08Z" transform="translate(42.399 9.586)" fill="#947c4e"></path><path d="M680.159-873.85a.939.939,0,0,0,.272.692,2.736,2.736,0,0,0,1.558.6c-.109.806-.185,3.994-.185,3.994-.038.774-1.016.566-1.016.566l-.357-.075.018.978a2.1,2.1,0,0,1,.75-.075.733.733,0,0,0,.583.714.719.719,0,0,0,.786-.675h.639l.191-1a.937.937,0,0,1-.921-.319,19.643,19.643,0,0,0,.28-4.112,1.781,1.781,0,0,0,.883-1.127c.343-.774-.26-.943-.355-.6a6.533,6.533,0,0,1-.252.7c-.189.441-.9.422-.9.422-1.284-.045-1.264-.514-1.264-.514.024-.6-.324-.6-.324-.6A.366.366,0,0,0,680.159-873.85Z" transform="translate(41.952 14.503)" fill="#947c4e"></path><path d="M691.5-867.141a1.573,1.573,0,0,0,1.022-.542l-.012-.615a1.015,1.015,0,0,1-.861.159c-1.083-.282-.589-3.455-.589-3.455.24-2.447-1.76-2.205-1.76-2.205-2.205.131-1.479,2.491-1.479,2.491.157.829.534,2.673.534,2.673a1.179,1.179,0,0,1-1.486,1.475,3.018,3.018,0,0,0-1.645.272.735.735,0,0,0-.2,1.232c.621-.778,2.018-.167,2.018-.167l0,.173c.76.026,1-.254,1-.254a.457.457,0,0,1,.738-.141.889.889,0,0,0,.661.266c.823.024,1.036-.319,1.036-.319a1.218,1.218,0,0,1,.576.175c.96.536,1.472.242,1.472.242C693.306-866.125,691.5-867.141,691.5-867.141Z" transform="translate(46.629 15.16)" fill="#947c4e"></path><path d="M685.867-874.42l-.613.28-.54.72a1.782,1.782,0,0,0-.453,1.026.644.644,0,0,0,.383-.214,2,2,0,0,1,1.546-.732c.3.327.1,1.2.1,1.2l1.04-1.173,1.8.1a3.541,3.541,0,0,1,.115-.827l.73.091c.139.323.617.423.617.423l.677.058a3.456,3.456,0,0,0-.27-.544.788.788,0,0,0,.119-.516l1.568.018.018-.07-.159-.071.074-.619a7.031,7.031,0,0,0,2.3-.79c.121-.058,0-.187,0-.187a4.069,4.069,0,0,1-2.274.4.5.5,0,0,1-.452.359h-1.155v.147c.012.3-.6.284-.6.284h-1.465l.214.72a4.575,4.575,0,0,1-2.072-.246l.1.669A1.277,1.277,0,0,1,685.867-874.42Z" transform="translate(46.122 12.686)" fill="#947c4e"></path><path d="M680.574-873.271l-.131.675-.153.058a5.09,5.09,0,0,0,.206,1.935h.677a9.387,9.387,0,0,1,0-2.669Z" transform="translate(42.052 15.704)" fill="#947c4e"></path><path d="M685.8-873.605l-.47.335a4.681,4.681,0,0,1-3.395.339,4.447,4.447,0,0,1-.079,2.669,2.283,2.283,0,0,0,1.6-.169l1.089-.058s.585-.045.47.3c0,0-.319,1.038.976,1.544a2.077,2.077,0,0,1,.885-1.972v-.3l-.939-1.278A1.712,1.712,0,0,0,685.8-873.605Z" transform="translate(43.679 15.365)" fill="#947c4e"></path><path d="M694.211-873.907l.272-.558s.341-.48,1.316.153c0,0,1.474,1.04,5.046.423,0,0,4.636-1.191,6.005-.312a1.222,1.222,0,0,1,.657,1.417,1.034,1.034,0,0,1-1.52.455,6.868,6.868,0,0,0-3.681-.655,12.107,12.107,0,0,0-4.131.955,18.715,18.715,0,0,1-3.927,1l-.413-.02s1.058.685-.561.863a7.224,7.224,0,0,1-1.488-.016s1.077,1.068.135,1.145a6.568,6.568,0,0,1-2.06-.377l-.349.448-1.854-.169s-.6,1.692-1.51,1.564c0,0-.683-.1-.542-1.3,0,0-1.47.383-1.383,1.288a4.714,4.714,0,0,0,3.659,4.229,19.123,19.123,0,0,1-.582-3.715s-.079-1.445,2.318-1.673c0,0,2.772-.339,2.846,2.387l-.109,2.76a6.7,6.7,0,0,0,3-1.23,15.666,15.666,0,0,1,3.963-2.115s2.367-.816,2.647,1.242a3.428,3.428,0,0,0,2.7,2.986v.939a6.734,6.734,0,0,1-2.738.429l-.319-.726.73-.663.036-.262s-1.07.117-1.165-1.97c0,0-.016-1.766-2.157-1.072,0,0-2.2.6-1.691,1.653a2.313,2.313,0,0,0,1.542,1.127.818.818,0,0,1,.657.808l-.1.675a4.256,4.256,0,0,1-1.913.44s-1.183.123-1.2.911h1.393l.032.226s.095.111,1.07,0c0,0,.847-.189.885.226a.582.582,0,0,0,.528-.115,1.154,1.154,0,0,1,1.068-.337s1.05.506,1.238.093l1.165-.242.188.4s.133-.264.75-.264l.435.018.113.246a.562.562,0,0,0,.432-.17l1.35-.018a2.407,2.407,0,0,0,1.369.415s.437-.048.1-.453a4.493,4.493,0,0,0-1.671-1.258s-1.01-.573.3-.867c0,0,.9-.334.81-.75,0,0-.038-.24-.828.264,0,0-.889.49-.808-1.219a3,3,0,0,1,.564-1.635,5.4,5.4,0,0,0,1.242-2.78,5.011,5.011,0,0,0-.252-1.877s-.228-.683.242-.883a1.771,1.771,0,0,0,.931-1.737s.123-2-2.756-2.163c0,0-.979.014-3.538.188a4.846,4.846,0,0,1-2.8-.843s-.475-.546-.268.586a.867.867,0,0,1-.9-1.064s.1-.449-.226-.425c0,0-.327-.044-.6.949a.537.537,0,0,1-.645.333,1.261,1.261,0,0,1-.853-1.919,1.543,1.543,0,0,1,1.607-.786,5.736,5.736,0,0,1,1.224.3,4.06,4.06,0,0,1,1.324.9s.181.222.478-.147l.131.5s.468-.133.562-.45a1.759,1.759,0,0,1,.552.476.8.8,0,0,0,.635.236l-.192-.46.411-.081a4.457,4.457,0,0,0,1.518.554s4.4,1.073,4.459-1.689c0,0-.062-1.587-1.508-1.3,0,0-1.032.085-.845,1.324a.957.957,0,0,0,.814.732s-.871.679-3.59-.74a15.235,15.235,0,0,0-5.386-1.633s-3.863-.462-4.088,2.334a2.91,2.91,0,0,0,.256,1.306s.417.631-.762.462a1.119,1.119,0,0,0-.353,1.584Zm-8.414,8.041a.541.541,0,0,1-.542-.54.539.539,0,0,1,.542-.538.537.537,0,0,1,.536.538A.539.539,0,0,1,685.8-865.866Zm.964,1.56a.537.537,0,0,1-.538-.538.537.537,0,0,1,.538-.54.538.538,0,0,1,.54.54A.537.537,0,0,1,686.761-864.306Zm6.376-.431a.54.54,0,0,1-.538-.54.54.54,0,0,1,.538-.54.54.54,0,0,1,.538.54A.54.54,0,0,1,693.137-864.737Zm.353-2.7a.538.538,0,0,1-.536-.54.538.538,0,0,1,.536-.54.54.54,0,0,1,.542.54A.54.54,0,0,1,693.49-867.436Zm1.649,1.9a.541.541,0,0,1-.542-.542.541.541,0,0,1,.542-.54.541.541,0,0,1,.536.54A.541.541,0,0,1,695.139-865.534ZM696-868.4a.538.538,0,0,1-.536-.54.538.538,0,0,1,.536-.54.541.541,0,0,1,.542.54A.541.541,0,0,1,696-868.4Zm1.921,1.5a.537.537,0,0,1-.54-.536.539.539,0,0,1,.54-.54.538.538,0,0,1,.536.54A.536.536,0,0,1,697.921-866.9Zm.7-2.451a.539.539,0,0,1-.536-.538.539.539,0,0,1,.536-.54.54.54,0,0,1,.542.54A.539.539,0,0,1,698.62-869.352Zm.435-2.256a.539.539,0,0,1,.544-.536.537.537,0,0,1,.536.536.538.538,0,0,1-.536.54A.54.54,0,0,1,699.056-871.607Zm1.28,4.348a.542.542,0,0,1-.54-.54.542.542,0,0,1,.54-.542.541.541,0,0,1,.538.542A.541.541,0,0,1,700.336-867.259Zm1.115-1.794a.539.539,0,0,1-.54-.54.539.539,0,0,1,.54-.538.537.537,0,0,1,.538.538A.537.537,0,0,1,701.45-869.053Zm.814-2.278a.542.542,0,0,1-.542-.54.542.542,0,0,1,.542-.54.541.541,0,0,1,.536.54A.541.541,0,0,1,702.265-871.331Zm.534,2.891a.542.542,0,0,1,.54-.538.543.543,0,0,1,.544.538.543.543,0,0,1-.544.54A.543.543,0,0,1,702.8-868.44Zm.907,3.52a.539.539,0,0,1-.542-.54.539.539,0,0,1,.542-.538.539.539,0,0,1,.536.538A.539.539,0,0,1,703.706-864.921Zm.927-5.209a.539.539,0,0,1-.544-.538.541.541,0,0,1,.544-.54.539.539,0,0,1,.534.54A.537.537,0,0,1,704.633-870.13Zm.96,3.532a.539.539,0,0,1-.536-.54.538.538,0,0,1,.536-.538.538.538,0,0,1,.542.538A.539.539,0,0,1,705.593-866.6Zm1.067-2.236a.537.537,0,0,1-.541-.536.539.539,0,0,1,.541-.54.538.538,0,0,1,.536.54A.536.536,0,0,1,706.66-868.833Z" transform="translate(46.082 9.053)" fill="#947c4e"></path></g></svg>